<svg id="Layer_1" data-name="Layer 1" xmlns="http://www.w3.org/2000/svg" width="0.85in" height="0.85in" viewBox="0 0 61.48 61.48"><defs><style>.cls-1{fill:#002a3f;}</style></defs><g id="Group_23" data-name="Group 23"><g id="Group_22" data-name="Group 22"><path id="Path_4" data-name="Path 4" class="cls-1" d="M30.74,60.66A29.92,29.92,0,1,1,60.66,30.74,29.91,29.91,0,0,1,30.74,60.66Zm0-58.47A28.55,28.55,0,1,0,59.29,30.74h0A28.58,28.58,0,0,0,30.74,2.19Z"/></g></g><path class="cls-1" d="M44.9,33.24l-4.3,0a.63.63,0,0,0-.63.62.63.63,0,0,0,.63.63l1.49,0a7.66,7.66,0,0,1-1.9,5.75,12.58,12.58,0,0,1-8.79,4.13V26.8h4.5a.69.69,0,1,0,0-1.38H31.4v-5a3.16,3.16,0,0,0,1.91-1.3,3.14,3.14,0,0,0-.83-4.37A3.15,3.15,0,1,0,30,20.39v5H25.51a.69.69,0,1,0,0,1.38H30V44.34a12.59,12.59,0,0,1-8.71-4.13,7.64,7.64,0,0,1-1.9-5.74h1.48a.63.63,0,1,0,0-1.25l-4.3,0a.63.63,0,0,0-.63.63.64.64,0,0,0,.63.63h1.56A8.91,8.91,0,0,0,20.35,41,13.81,13.81,0,0,0,30,45.59v1a.68.68,0,0,0,.17.5.72.72,0,0,0,.48.24h0a.72.72,0,0,0,.46-.18.71.71,0,0,0,.23-.48V45.59A13.85,13.85,0,0,0,41.13,41a9,9,0,0,0,2.2-6.55l1.56,0a.63.63,0,0,0,0-1.25ZM32.46,17.3a1.77,1.77,0,0,1-1.63,1.77.61.61,0,0,0-.27,0,1.77,1.77,0,0,1,.13-3.53h0a1.76,1.76,0,0,1,1.76,1.76Z"/></svg>