<svg id="Layer_1" data-name="Layer 1" xmlns="http://www.w3.org/2000/svg" width="0.49in" height="0.38in" viewBox="0 0 35.61 27.34"><defs><style>.cls-1{fill:#002a3f;}</style></defs><path class="cls-1" d="M34.51,5.39l-1.87-.91a.63.63,0,0,0-.31-.29A38.2,38.2,0,0,0,25.5,1.78V1.41a.69.69,0,0,0-.69-.69H21.64a.66.66,0,0,0-.53.27,31,31,0,0,0-7.88.17.7.7,0,0,0-.65-.44H9.41a.69.69,0,0,0-.69.69v.74a40.58,40.58,0,0,0-5.45,2A.67.67,0,0,0,3,4.48l-1.87.91A.71.71,0,0,0,.71,6V21.13a.69.69,0,0,0,.38.62L3,22.66a.65.65,0,0,0,.31.3,39.26,39.26,0,0,0,5.45,2v.93a.69.69,0,0,0,.69.69h3.17a.7.7,0,0,0,.69-.64,31.19,31.19,0,0,0,4.53.35A30.84,30.84,0,0,0,21,26.16a.69.69,0,0,0,.65.46h3.17a.69.69,0,0,0,.69-.69v-.56A38.2,38.2,0,0,0,32.33,23a.67.67,0,0,0,.31-.29l1.87-.92a.68.68,0,0,0,.39-.62V6A.7.7,0,0,0,34.51,5.39Zm-9,4.18a57.88,57.88,0,0,1,5.85,1.08V16.5a57.88,57.88,0,0,1-5.85,1.08Zm5.85-4.3V9.21c-1.93-.44-3.88-.8-5.85-1.05V3.21A36,36,0,0,1,31.35,5.27Zm-18.07,4A59.48,59.48,0,0,1,21,9.15V18a59.48,59.48,0,0,1-7.67-.1ZM21,2.36v5.4a59.48,59.48,0,0,0-7.67.1V2.55A29,29,0,0,1,21,2.36Zm-12.23,6c-1.48.22-3,.5-4.46.84v-4A39.13,39.13,0,0,1,8.72,3.6ZM4.26,10.64c1.49-.34,3-.62,4.46-.85v7.57c-1.48-.24-3-.52-4.46-.86ZM2.87,21.08l-.78-.38V6.45l.78-.38Zm1.39.8v-4c1.49.33,3,.61,4.46.84v4.78A37.32,37.32,0,0,1,4.26,21.88Zm7.63,3.35H10.11V2.11h1.78Zm1.39-.64V19.28c1.55.12,3.11.19,4.65.2,1,0,2,0,3-.09v5.39A29.84,29.84,0,0,1,13.28,24.59Zm10.84.64H22.33V2.11h1.79ZM25.5,19a57.78,57.78,0,0,0,5.85-1.05v3.95a36,36,0,0,1-5.85,2.06Zm8,1.72-.78.38v-15l.78.38Z"/></svg>