<svg id="Layer_1" data-name="Layer 1" xmlns="http://www.w3.org/2000/svg" width="0.56in" height="0.56in" viewBox="0 0 40.57 40.57"><defs><style>.cls-1{fill:#002a3f;}</style></defs><path id="Path_43" class="cls-1" d="M13.44,36.93l2.4-7.19a10.4,10.4,0,0,0,8.9,0l2.4,7.19a18.08,18.08,0,0,1-13.71,0Zm-9.8-23.5,7.2,2.4a10.5,10.5,0,0,0,0,8.9l-7.2,2.4a18.08,18.08,0,0,1,0-13.71Zm23.5-9.78-2.4,7.19a10.5,10.5,0,0,0-8.9,0l-2.4-7.19a18.08,18.08,0,0,1,13.71,0ZM25,28.07H24.9a.75.75,0,0,0-.3.2,9.12,9.12,0,0,1-8.64,0,.69.69,0,0,0-.3-.2h-.07a9.11,9.11,0,0,1-1.74-1.35A8.79,8.79,0,0,1,12.5,25a.64.64,0,0,1,0-.07.75.75,0,0,0-.2-.3,9.12,9.12,0,0,1,0-8.65.73.73,0,0,0,.19-.28s0-.05,0-.08a9.44,9.44,0,0,1,1.35-1.74A8.88,8.88,0,0,1,15.6,12.5h.06a.69.69,0,0,0,.3-.2,9,9,0,0,1,8.64,0,.75.75,0,0,0,.3.2H25a8.85,8.85,0,0,1,1.76,1.35,9.44,9.44,0,0,1,1.35,1.74s0,.05,0,.08a.87.87,0,0,0,.19.28,9.09,9.09,0,0,1,0,8.65.75.75,0,0,0-.2.3s0,.05,0,.07a9.18,9.18,0,0,1-1.35,1.75A9.44,9.44,0,0,1,25,28.07Zm12-.93-7.2-2.4a10.57,10.57,0,0,0,0-8.9l7.2-2.4a18.23,18.23,0,0,1,0,13.72ZM34,6.6A19.37,19.37,0,0,0,6.6,6.6a19.35,19.35,0,0,0,13.69,33A19.35,19.35,0,0,0,34,6.6Z"/></svg>