<svg id="Layer_1" data-name="Layer 1" xmlns="http://www.w3.org/2000/svg" width="0.5845in" height="0.7579in" viewBox="0 0 42.082 54.571"><defs><style>.cls-1{fill:#002a3f;}</style></defs><path id="Path_259" data-name="Path 259" class="cls-1" d="M13.4284,52.1424c.021-.35-.6-.738-1.762-1.0929a21.1226,21.1226,0,0,0-3.348-.679.37.37,0,0,0-.029-.166,1.6116,1.6116,0,0,1-.128-.525,31.5228,31.5228,0,0,1,.126-5.4c.072-1,.171-2.176.3-3.557a116.5314,116.5314,0,0,1,1.44-11.592,6.0808,6.0808,0,0,1,.2-.693c.037-.1.082-.206.124-.308.28-.678.487-1.22.543-1.363l.033-.052c.121-.166.3-.418.53-.745,1.481-2.129,4.835-7.368,5.242-11.662.07-.745.126-1.484.169-2.208a82.0619,82.0619,0,0,0,.049-8.416c-.042-.939-.086-1.487-.086-1.487h-.005c-.013-.065-.165-.177-1.465-.384-.93-.148-2.172-.3-3.5-.426s-2.571-.209-3.512-.239c-1.27-.038-1.474.028-1.51.086h0a.07.07,0,0,0-.007.027c-.052.193-.357,1.338-.732,3.069h0l-.038.18v.018l-.036.173-.006.026-.035.169-.007.034-.035.168-.007.037-.034.168-.01.047-.032.163-.011.055-.032.161-.011.054-.032.165-.012.062-.031.161-.011.058c-.034.179-.069.362-.1.548l-.016.083-.021.111-.024.13-.018.1-.026.145-.018.1-.026.147-.019.1-.026.148-.017.1-.027.153-.017.1-.026.153-.018.106-.025.153-.017.106-.026.156-.017.106-.025.158-.017.107L5.17,9.4l-.017.106-.024.163-.017.108-.024.163-.016.11-.023.164-.016.11c-.007.055-.016.111-.023.166l-.016.111-.022.168-.015.109-.023.172-.013.108-.022.176-.013.1-.022.18-.012.1L4.83,11.9l-.01.1-.023.2-.009.085-.024.222-.006.064c-.01.093-.02.185-.029.279v.008l-.028.293c0,.039-.007.081-.01.12a19.1618,19.1618,0,0,0,.8,6.325c.345,1.264.754,2.469,1.149,3.515.113.3.225.584.332.855.126.316.249.611.362.88.311.735.567,1.287.707,1.584l.012.032c0,.007.113.638.285,1.476.022.108.047.214.064.324a6.3,6.3,0,0,1,.064.718,108.9605,108.9605,0,0,1-.722,11.657c-.131,1.382-.256,2.557-.375,3.557a29.5663,29.5663,0,0,1-.92,5.32,1.7543,1.7543,0,0,1-.235.489.3726.3726,0,0,0-.06.161,20.8207,20.8207,0,0,0-3.34.042c-1.2.13-1.888.394-1.936.742h0v.011c-.01.114-.018.185-.025.257l-.009.106c-.034.354.591.747,1.761,1.105a26.3774,26.3774,0,0,0,8.855.839c1.215-.133,1.9-.4,1.937-.755l.036-.372Z" transform="translate(-0.8431 -1.1363)"/><path id="Path_260" data-name="Path 260" class="cls-1" d="M42.8444,52.1314c-.087-.34-.8-.519-2.011-.5a21.2072,21.2072,0,0,0-3.4.376.3825.3825,0,0,0-.079-.149,1.6514,1.6514,0,0,1-.283-.46,31.7016,31.7016,0,0,1-1.529-5.182c-.236-.975-.5-2.125-.8-3.48a116.5562,116.5562,0,0,1-2.168-11.477,5.7879,5.7879,0,0,1-.025-.72c0-.111.015-.221.024-.33.059-.732.091-1.31.1-1.463l.016-.06c.065-.195.162-.491.278-.87.76-2.481,2.354-8.494,1.43-12.7059-.16-.731-.332-1.452-.513-2.1541a81.9531,81.9531,0,0,0-2.523-8.03c-.327-.8809-.536-1.39-.536-1.39h0c-.033-.0579-.211-.117-1.513.0821-.931.143-2.159.378-3.458.6629s-2.513.5851-3.418.844c-1.22.351-1.394.476-1.412.543h0a.0675.0675,0,0,0,0,.029c.009.2.068,1.383.239,3.144h0l.019.183v.018l.019.175v.027l.018.172v.035l.018.17v.038l.019.17.005.047.018.166.006.056.019.163.006.054.02.167.0071.063.0189.163.0071.059q.033.2721.068.553l.01.084.014.111.018.132.012.1.02.146.013.1.021.148.013.1.021.148.014.1.022.153.015.1.023.1541.016.1.023.154.016.106.025.156.016.106.025.158.018.107.025.161.018.106c.008.054.018.109.026.163l.019.107c.008.054.018.109.027.163l.018.11.028.163.02.1089.029.166.019.109.03.168.02.108.031.171.02.106.033.174.02.1.034.1791.02.1.036.185.019.1.039.2.018.084c.014.072.03.145.045.219l.013.063c.019.091.038.182.058.2729v.008c.02.1.041.192.062.288.008.038.018.079.027.117a19.1327,19.1327,0,0,0,2.7,5.778c.714,1.1,1.472,2.121,2.167,3,.2.25.391.4881.578.713.216.262.423.505.614.728.52.6.932,1.052,1.157,1.292l.022.027c0,.005.3.573.721,1.318.054.1.111.19.161.289a6.4487,6.4487,0,0,1,.281.664,108.8352,108.8352,0,0,1,2.871,11.32c.3,1.356.538,2.514.729,3.5a29.5726,29.5726,0,0,1,.749,5.347,1.7659,1.7659,0,0,1-.075.538.3678.3678,0,0,0-.008.171,21.0469,21.0469,0,0,0-3.168,1.06c-1.105.492-1.678.952-1.616,1.3h0v.011c.026.111.04.181.056.252.007.034.015.067.022.1.077.348.792.53,2.015.515a26.42,26.42,0,0,0,8.687-1.9c1.118-.5,1.691-.962,1.615-1.31l-.08-.366Z" transform="translate(-0.8431 -1.1363)"/></svg>