<svg id="Layer_1" data-name="Layer 1" xmlns="http://www.w3.org/2000/svg" width="0.86in" height="0.86in" viewBox="0 0 61.75 61.75"><defs><style>.cls-1{isolation:isolate;}.cls-2{fill:#002a3f;}</style></defs><g id="Group_405" data-name="Group 405"><g id="N" class="cls-1"><g class="cls-1"><path class="cls-2" d="M28.6,12.4h1.06l1.62,3a11.67,11.67,0,0,1,.56,1.23h0c-.05-.58-.12-1.25-.12-1.84V12.4h.92v5.43H31.62l-1.63-3a11.85,11.85,0,0,1-.56-1.23h0a18.35,18.35,0,0,1,.12,1.85v2.37H28.6Z"/></g></g><g id="S" class="cls-1"><g class="cls-1"><path class="cls-2" d="M28.79,48.41l.55-.68a2.22,2.22,0,0,0,1.52.62c.63,0,1-.29,1-.72s-.37-.6-.88-.82l-.77-.34A1.62,1.62,0,0,1,29,45,1.73,1.73,0,0,1,31,43.35a2.61,2.61,0,0,1,1.77.7l-.56.68A1.89,1.89,0,0,0,31,44.25c-.53,0-.87.25-.87.66s.43.59.9.79l.76.31a1.58,1.58,0,0,1,1.15,1.54,1.82,1.82,0,0,1-2.05,1.7A2.82,2.82,0,0,1,28.79,48.41Z"/></g></g><g id="W" class="cls-1"><g class="cls-1"><path class="cls-2" d="M12.14,28.15h1l.45,2.63c.09.56.16,1.11.22,1.72h0c.1-.61.2-1.16.32-1.72l.63-2.63h.91l.62,2.63c.12.55.24,1.11.34,1.72h0c.06-.61.14-1.16.22-1.72l.45-2.63h.91l-1,5.23H16l-.62-2.75a11.35,11.35,0,0,1-.19-1.27h0c-.06.48-.12.85-.2,1.27l-.6,2.75h-1.2Z"/></g></g></g><path class="cls-2" d="M30.87,1A29.93,29.93,0,1,0,60.8,30.87,29.93,29.93,0,0,0,30.87,1Zm0,58.48A28.56,28.56,0,1,1,59.43,30.87h0A28.56,28.56,0,0,1,30.87,59.43Z"/><path class="cls-2" d="M31.52,31,44.46,18c.4-.4.51-.94.24-1.2s-.8-.16-1.2.24L30.56,30,17.62,17.05c-.4-.4-.94-.51-1.2-.24s-.16.8.24,1.2L29.6,31,16.66,43.89c-.4.4-.51.94-.24,1.2s.8.16,1.2-.24L30.56,31.91,43.5,44.85c.4.4.94.51,1.2.24s.16-.8-.24-1.2Z"/><polygon class="cls-2" points="45.73 32.57 45.73 31.06 47.01 31.06 47.84 31.06 47.84 30.26 47.01 30.26 45.73 30.26 45.73 28.94 47.01 28.94 48.13 28.94 48.13 28.14 47.01 28.14 44.75 28.14 44.75 33.37 47.01 33.37 48.2 33.37 48.2 32.57 47.01 32.57 45.73 32.57"/></svg>