<svg id="Layer_1" data-name="Layer 1" xmlns="http://www.w3.org/2000/svg" width="0.68in" height="0.68in" viewBox="0 0 49.04 49.04"><defs><style>.cls-1{fill:#fff;}</style></defs><g id="Group_453" data-name="Group 453"><g id="Group_441" data-name="Group 441"><g id="Group_438" data-name="Group 438"><g id="Group_23-3" data-name="Group 23-3"><g id="Group_22-3" data-name="Group 22-3"><path id="Path_4-3" data-name="Path 4-3" class="cls-1" d="M24.52,47.84A23.33,23.33,0,1,1,47.84,24.52,23.33,23.33,0,0,1,24.52,47.84Zm0-45.58A22.26,22.26,0,1,0,46.78,24.52h0A22.28,22.28,0,0,0,24.52,2.26Z"/></g></g></g></g><g id="Group_450" data-name="Group 450"><path id="Path_428" data-name="Path 428" class="cls-1" d="M17.61,28.37a2.45,2.45,0,1,0-2.45-2.45h0a2.45,2.45,0,0,0,2.45,2.45Z"/><circle id="Ellipse_14" data-name="Ellipse 14" class="cls-1" cx="31.42" cy="25.92" r="2.45"/><path id="Path_429" data-name="Path 429" class="cls-1" d="M10.7,25.92A6.91,6.91,0,0,0,22.3,31l2.22,2.41L26.73,31a6.91,6.91,0,1,0,9.35-10.17h0l2.26-2.46h-5a15.67,15.67,0,0,0-17.61,0h-5L13,20.81A6.94,6.94,0,0,0,10.7,25.92Zm25.39,0a4.67,4.67,0,1,1-4.67-4.68,4.67,4.67,0,0,1,4.67,4.68Zm-11.58-8a13.36,13.36,0,0,1,5.19,1,7.62,7.62,0,0,0-5.18,6.84,7.63,7.63,0,0,0-5.19-6.84A13.35,13.35,0,0,1,24.51,17.9Zm-6.9,3.34a4.68,4.68,0,1,1-4.68,4.68,4.68,4.68,0,0,1,4.68-4.68Z"/></g></g></svg>