<svg id="Layer_1" data-name="Layer 1" xmlns="http://www.w3.org/2000/svg" width="0.81in" height="0.81in" viewBox="0 0 58.3 58.3"><defs><style>.cls-1{fill:#fff;}</style></defs><g id="Group_290" data-name="Group 290"><g id="Group_251" data-name="Group 251"><g id="Group_250" data-name="Group 250"><path id="Path_117" data-name="Path 117" class="cls-1" d="M29.15,2.15a27,27,0,1,1-27,27A27,27,0,0,1,29.15,2.15Zm0,49.43A22.43,22.43,0,1,0,6.72,29.15,22.43,22.43,0,0,0,29.15,51.58Z"/></g></g><g id="Group_253" data-name="Group 253"><g id="Group_252" data-name="Group 252"><path id="Path_118" data-name="Path 118" class="cls-1" d="M33.33,15a2.28,2.28,0,0,1,1.61,3.9L24.73,29.15,34.94,39.37a2.28,2.28,0,0,1-3.23,3.23L19.89,30.76a2.27,2.27,0,0,1,0-3.22h0L31.71,15.71A2.29,2.29,0,0,1,33.33,15Z"/></g></g></g></svg>