<svg id="Layer_1" data-name="Layer 1" xmlns="http://www.w3.org/2000/svg" width="50" height="50" viewBox="0 0 50 50"><defs><style>.cls-1{fill:#00263a;fill-rule:evenodd;}</style></defs><path class="cls-1" d="M43.8,35.46c2-3.82,2.41-3.66,1.29-1.26-.87,1.85.93-1.1.18.67a31,31,0,0,1-1.51,3c-.83,1.08.78-.51.08.52-1.29,1.47-5.2,9.88-19.64,7.82,6.24,2.65,12.15.9,17-1.38,0,0,0,0,0,0-.35.22-1.75,2.93-10.15,4.66,0,0-5.16,1.14-14.29-1.9.36,1.12.64,1.27.64,1.27C-3.43,43.08-8,7.56,20.66.88,25.68-.33,33.25.45,36.5,2c3.38.9-.59,1.37-.59,1.37s-.68,1.23,1.57,1.08,5.89,1.71,3.81,1.45-4.14.71-3.83.72c3.17-.27,7.68,2.16,8.18,3.43,1.24,2.1-2.47,3.69-4.36.64,0-.07.64,1,.95,1.39a15.2,15.2,0,0,1,3.66,6.8c.19.91-2-3.76-4.44-4.81.29,2.76.57,6-1.21,2.17-.4-.88-2-3.41-3.08-3.67S34.32,10.12,33.1,11s-1.25-.66-3.4.65-5.07-.33-7.42-.07c-2,.23-8.08,3.86-8.75,4.62-.48.51-1.3.4-.75-.19,1.05-1.12,3.65-3.63,4.12-3.47-1.11-.49-3.7,2.06-4.82,2.78-3.66,3.16-8,19.4,8.32,26.1a15.59,15.59,0,0,0,11.2-.06c1.3.22-4.1,1.85-2.78,1.85,6.37,0,11.82-2.33,15-7.71"/></svg>