<svg id="Layer_1" data-name="Layer 1" xmlns="http://www.w3.org/2000/svg" width="2in" height="2in" viewBox="0 0 144 144"><defs><style>.cls-1{fill:#00263a;}</style></defs><path class="cls-1" d="M72,133.36A61.36,61.36,0,1,1,133.36,72,61.42,61.42,0,0,1,72,133.36ZM72,13.44A58.56,58.56,0,1,0,130.56,72,58.63,58.63,0,0,0,72,13.44Z"/><path class="cls-1" d="M98.73,73H46.3a1.4,1.4,0,0,1,0-2.8H98.73a1.4,1.4,0,0,1,0,2.8Z"/><path class="cls-1" d="M45.22,49.52c0-6,3.76-9.58,8.41-9.58a7.29,7.29,0,0,1,5.29,2.32l-1.74,2.1a4.79,4.79,0,0,0-3.48-1.59c-3,0-5.13,2.53-5.13,6.65s2,6.73,5,6.73a5.18,5.18,0,0,0,3.92-1.89l1.74,2A7.32,7.32,0,0,1,53.5,59C48.88,59,45.22,55.59,45.22,49.52Z"/><path class="cls-1" d="M65.17,40.28h3.25v7.37h7.43V40.28H79.1V58.64H75.85V50.5H68.42v8.14H65.17Z"/><path class="cls-1" d="M85.33,56.29l1.9-2.24A7.22,7.22,0,0,0,92,56.15c2.07,0,3.2-.94,3.2-2.37s-1.18-2-2.85-2.71L89.85,50c-1.81-.75-3.71-2.18-3.71-4.86,0-2.93,2.58-5.18,6.16-5.18A8.08,8.08,0,0,1,98,42.28l-1.68,2.07a5.88,5.88,0,0,0-4-1.58c-1.74,0-2.87.81-2.87,2.16s1.4,2,2.92,2.6l2.48,1c2.18.91,3.71,2.3,3.71,5,0,3-2.47,5.46-6.6,5.46A9.46,9.46,0,0,1,85.33,56.29Z"/><path class="cls-1" d="M44.84,83.34H48.1v7.38h7.42V83.34h3.26V101.7H55.52V93.56H48.1v8.14H44.84Z"/><path class="cls-1" d="M66.26,83.34h5.88c3.77,0,6.54,1.16,6.54,4.53a4.11,4.11,0,0,1-2.55,4V92a4.19,4.19,0,0,1,3.53,4.35c0,3.67-3,5.39-7,5.39H66.26Zm5.58,7.58c2.56,0,3.65-1,3.65-2.59,0-1.78-1.2-2.45-3.58-2.45H69.52v5Zm.43,8.25c2.7,0,4.2-1,4.2-3s-1.46-2.77-4.2-2.77H69.52v5.81Z"/><path class="cls-1" d="M85.83,83.34H92c3.82,0,6.76,1.35,6.76,5.45,0,3.95-2.94,5.74-6.76,5.74H89.09v7.17H85.83Zm5.85,8.58c2.52,0,3.89-1,3.89-3.13S94.2,86,91.68,86H89.09v6Zm-.27,1.74,2.36-2,5.73,10H95.84Z"/></svg>