<?xml version="1.0" encoding="UTF-8"?><svg id="a" xmlns="http://www.w3.org/2000/svg" viewBox="0 0 360 360"><defs><style>.b{fill:#00263a;}</style></defs><g><path class="b" d="M77.67,196.08h7.44c2.03,0,3.47,.6,4.33,1.8,.5,.71,.75,1.53,.75,2.46,0,1.09-.31,1.98-.93,2.67-.32,.37-.78,.7-1.38,1.01,.88,.34,1.54,.71,1.98,1.14,.77,.75,1.16,1.79,1.16,3.11,0,1.11-.35,2.11-1.05,3.01-1.04,1.34-2.71,2.02-4.99,2.02h-7.32v-17.21Zm6.57,7.28c.99,0,1.77-.14,2.32-.41,.87-.43,1.3-1.2,1.3-2.32s-.46-1.88-1.39-2.27c-.52-.22-1.29-.33-2.32-.33h-4.2v5.33h4.29Zm.79,7.95c1.44,0,2.47-.41,3.09-1.24,.39-.52,.58-1.16,.58-1.9,0-1.25-.56-2.1-1.69-2.55-.6-.24-1.39-.36-2.38-.36h-4.67v6.06h5.08Z"/><path class="b" d="M101.2,201.09c.83,.42,1.46,.96,1.9,1.62,.42,.63,.7,1.37,.84,2.21,.12,.58,.19,1.5,.19,2.77h-9.13c.04,1.28,.34,2.3,.9,3.07,.56,.77,1.42,1.16,2.59,1.16,1.09,0,1.96-.37,2.62-1.09,.36-.42,.62-.91,.77-1.47h2.07c-.05,.46-.24,.97-.54,1.54s-.65,1.03-1.03,1.39c-.64,.62-1.42,1.05-2.36,1.27-.5,.12-1.07,.19-1.71,.19-1.55,0-2.87-.57-3.95-1.71-1.08-1.14-1.62-2.73-1.62-4.78s.54-3.65,1.63-4.91c1.09-1.26,2.51-1.89,4.26-1.89,.88,0,1.74,.21,2.57,.63Zm.76,4.93c-.08-.91-.28-1.64-.59-2.19-.57-1.02-1.53-1.52-2.87-1.52-.96,0-1.77,.35-2.42,1.05s-1,1.59-1.03,2.67h6.91Z"/><path class="b" d="M108.05,209.36c.06,.7,.24,1.24,.54,1.62,.54,.68,1.48,1.02,2.82,1.02,.8,0,1.5-.17,2.1-.51s.91-.87,.91-1.58c0-.54-.24-.95-.73-1.23-.31-.17-.92-.37-1.83-.6l-1.7-.42c-1.09-.27-1.89-.56-2.41-.89-.92-.57-1.38-1.36-1.38-2.37,0-1.19,.43-2.15,1.3-2.88,.87-.73,2.03-1.1,3.5-1.1,1.92,0,3.3,.55,4.14,1.66,.53,.7,.79,1.46,.77,2.27h-1.99c-.04-.47-.21-.91-.52-1.29-.5-.55-1.36-.83-2.58-.83-.82,0-1.43,.15-1.85,.46s-.63,.71-.63,1.2c0,.54,.28,.98,.83,1.31,.32,.19,.79,.37,1.41,.51l1.42,.34c1.54,.37,2.58,.72,3.1,1.07,.82,.54,1.23,1.39,1.23,2.54s-.43,2.08-1.29,2.89c-.86,.81-2.17,1.22-3.92,1.22-1.89,0-3.23-.42-4.02-1.27s-1.21-1.9-1.26-3.15h2.03Z"/><path class="b" d="M119.22,197.24h2.13v3.5h2v1.72h-2v8.19c0,.44,.15,.73,.45,.88,.16,.09,.44,.13,.82,.13,.1,0,.21,0,.33,0s.25-.02,.41-.04v1.68c-.24,.07-.49,.12-.76,.15s-.54,.05-.85,.05c-.98,0-1.65-.25-2-.76s-.53-1.16-.53-1.96v-8.31h-1.7v-1.72h1.7v-3.5Z"/></g><g><path class="b" d="M144.58,197.34c1.19,1.15,1.85,2.45,1.98,3.91h-2.27c-.25-1.11-.76-1.99-1.51-2.64s-1.82-.97-3.18-.97c-1.67,0-3.01,.6-4.03,1.79-1.02,1.19-1.54,3.02-1.54,5.48,0,2.02,.46,3.65,1.39,4.91,.92,1.26,2.3,1.88,4.14,1.88,1.69,0,2.97-.66,3.86-1.98,.47-.7,.82-1.61,1.05-2.74h2.27c-.2,1.81-.87,3.33-1.99,4.56-1.35,1.48-3.17,2.21-5.47,2.21-1.98,0-3.64-.61-4.98-1.82-1.77-1.6-2.65-4.08-2.65-7.42,0-2.54,.66-4.62,1.99-6.25,1.44-1.77,3.42-2.65,5.94-2.65,2.15,0,3.83,.57,5.02,1.72Z"/><path class="b" d="M149.46,196.02h2.11v6.42c.5-.63,.95-1.08,1.35-1.34,.68-.45,1.53-.67,2.54-.67,1.82,0,3.05,.64,3.7,1.91,.35,.7,.53,1.66,.53,2.89v8.05h-2.17v-7.91c0-.92-.12-1.6-.35-2.03-.38-.69-1.1-1.03-2.16-1.03-.88,0-1.67,.3-2.38,.9s-1.07,1.74-1.07,3.41v6.66h-2.11v-17.27Z"/><path class="b" d="M169.53,205.7c.48-.06,.81-.26,.97-.61,.09-.19,.14-.46,.14-.81,0-.72-.26-1.25-.77-1.57-.51-.33-1.24-.49-2.19-.49-1.1,0-1.88,.3-2.34,.89-.26,.33-.42,.82-.5,1.47h-1.97c.04-1.55,.54-2.63,1.5-3.24,.96-.61,2.08-.91,3.35-.91,1.47,0,2.67,.28,3.59,.84,.91,.56,1.37,1.44,1.37,2.62v7.23c0,.22,.04,.39,.13,.53,.09,.13,.28,.2,.57,.2,.09,0,.2,0,.32-.02s.24-.03,.38-.05v1.56c-.33,.09-.58,.15-.75,.18s-.41,.04-.7,.04c-.73,0-1.25-.26-1.58-.77-.17-.27-.29-.66-.36-1.16-.43,.56-1.05,1.05-1.85,1.46s-1.69,.62-2.66,.62c-1.16,0-2.12-.35-2.85-1.06s-1.11-1.59-1.11-2.65c0-1.16,.36-2.06,1.09-2.7s1.68-1.03,2.86-1.18l3.36-.42Zm-4.44,5.7c.45,.35,.97,.53,1.58,.53,.74,0,1.46-.17,2.16-.51,1.17-.57,1.76-1.5,1.76-2.8v-1.7c-.26,.17-.59,.3-.99,.41-.41,.11-.8,.19-1.19,.23l-1.27,.16c-.76,.1-1.34,.26-1.72,.48-.65,.37-.98,.95-.98,1.75,0,.61,.22,1.09,.67,1.44Z"/><path class="b" d="M176.21,200.75h2v2.17c.16-.42,.57-.94,1.21-1.54s1.38-.91,2.21-.91c.04,0,.11,0,.2,.01s.25,.02,.48,.05v2.23c-.12-.02-.24-.04-.35-.05s-.22-.01-.35-.01c-1.06,0-1.88,.34-2.45,1.03s-.86,1.47-.86,2.36v7.22h-2.11v-12.55Z"/><path class="b" d="M184.57,197.24h2.13v3.5h2v1.72h-2v8.19c0,.44,.15,.73,.45,.88,.16,.09,.44,.13,.82,.13,.1,0,.21,0,.33,0s.25-.02,.41-.04v1.68c-.24,.07-.49,.12-.76,.15s-.54,.05-.85,.05c-.98,0-1.65-.25-2-.76s-.53-1.16-.53-1.96v-8.31h-1.7v-1.72h1.7v-3.5Z"/><path class="b" d="M198.57,201.09c.83,.42,1.46,.96,1.9,1.62,.42,.63,.7,1.37,.84,2.21,.12,.58,.19,1.5,.19,2.77h-9.13c.04,1.28,.34,2.3,.9,3.07,.56,.77,1.42,1.16,2.59,1.16,1.09,0,1.96-.37,2.62-1.09,.36-.42,.62-.91,.77-1.47h2.07c-.05,.46-.24,.97-.54,1.54s-.65,1.03-1.03,1.39c-.64,.62-1.42,1.05-2.36,1.27-.5,.12-1.07,.19-1.71,.19-1.55,0-2.87-.57-3.95-1.71-1.08-1.14-1.62-2.73-1.62-4.78s.54-3.65,1.63-4.91c1.09-1.26,2.51-1.89,4.26-1.89,.88,0,1.74,.21,2.57,.63Zm.76,4.93c-.08-.91-.28-1.64-.59-2.19-.57-1.02-1.53-1.52-2.87-1.52-.96,0-1.77,.35-2.42,1.05s-1,1.59-1.03,2.67h6.91Z"/><path class="b" d="M204.22,200.75h2v2.17c.16-.42,.57-.94,1.21-1.54s1.38-.91,2.21-.91c.04,0,.11,0,.2,.01s.25,.02,.48,.05v2.23c-.12-.02-.24-.04-.35-.05s-.22-.01-.35-.01c-1.06,0-1.88,.34-2.45,1.03s-.86,1.47-.86,2.36v7.22h-2.11v-12.55Z"/></g><g><path class="b" d="M218.48,196.08h7.44c2.03,0,3.47,.6,4.33,1.8,.5,.71,.75,1.53,.75,2.46,0,1.09-.31,1.98-.93,2.67-.32,.37-.78,.7-1.38,1.01,.88,.34,1.54,.71,1.98,1.14,.77,.75,1.16,1.79,1.16,3.11,0,1.11-.35,2.11-1.05,3.01-1.04,1.34-2.71,2.02-4.99,2.02h-7.32v-17.21Zm6.57,7.28c.99,0,1.77-.14,2.32-.41,.87-.43,1.3-1.2,1.3-2.32s-.46-1.88-1.39-2.27c-.52-.22-1.29-.33-2.32-.33h-4.2v5.33h4.29Zm.79,7.95c1.44,0,2.47-.41,3.09-1.24,.39-.52,.58-1.16,.58-1.9,0-1.25-.56-2.1-1.69-2.55-.6-.24-1.39-.36-2.38-.36h-4.67v6.06h5.08Z"/><path class="b" d="M243.36,202c1.11,1.08,1.66,2.66,1.66,4.75s-.49,3.69-1.47,5.01c-.98,1.32-2.49,1.98-4.55,1.98-1.71,0-3.08-.58-4.08-1.75s-1.51-2.73-1.51-4.7c0-2.11,.53-3.79,1.59-5.04,1.06-1.25,2.49-1.87,4.28-1.87,1.61,0,2.96,.54,4.07,1.62Zm-1.31,8.34c.51-1.06,.77-2.23,.77-3.53,0-1.17-.19-2.12-.56-2.86-.59-1.16-1.6-1.73-3.04-1.73-1.28,0-2.2,.49-2.78,1.47s-.87,2.17-.87,3.56,.29,2.45,.87,3.34,1.5,1.33,2.76,1.33c1.38,0,2.33-.53,2.84-1.59Z"/><path class="b" d="M254.34,205.7c.48-.06,.81-.26,.97-.61,.09-.19,.14-.46,.14-.81,0-.72-.26-1.25-.77-1.57-.51-.33-1.24-.49-2.19-.49-1.1,0-1.88,.3-2.34,.89-.26,.33-.42,.82-.5,1.47h-1.97c.04-1.55,.54-2.63,1.5-3.24,.96-.61,2.08-.91,3.35-.91,1.47,0,2.67,.28,3.59,.84,.91,.56,1.37,1.44,1.37,2.62v7.23c0,.22,.04,.39,.13,.53,.09,.13,.28,.2,.57,.2,.09,0,.2,0,.32-.02s.24-.03,.38-.05v1.56c-.33,.09-.58,.15-.75,.18s-.41,.04-.7,.04c-.73,0-1.25-.26-1.58-.77-.17-.27-.29-.66-.36-1.16-.43,.56-1.05,1.05-1.85,1.46s-1.69,.62-2.66,.62c-1.16,0-2.12-.35-2.85-1.06s-1.11-1.59-1.11-2.65c0-1.16,.36-2.06,1.09-2.7s1.68-1.03,2.86-1.18l3.36-.42Zm-4.44,5.7c.45,.35,.97,.53,1.58,.53,.74,0,1.46-.17,2.16-.51,1.17-.57,1.76-1.5,1.76-2.8v-1.7c-.26,.17-.59,.3-.99,.41-.41,.11-.8,.19-1.19,.23l-1.27,.16c-.76,.1-1.34,.26-1.72,.48-.65,.37-.98,.95-.98,1.75,0,.61,.22,1.09,.67,1.44Z"/><path class="b" d="M261.38,197.24h2.13v3.5h2v1.72h-2v8.19c0,.44,.15,.73,.45,.88,.16,.09,.44,.13,.82,.13,.1,0,.21,0,.33,0s.25-.02,.41-.04v1.68c-.24,.07-.49,.12-.76,.15s-.54,.05-.85,.05c-.98,0-1.65-.25-2-.76s-.53-1.16-.53-1.96v-8.31h-1.7v-1.72h1.7v-3.5Z"/><path class="b" d="M268.88,209.36c.06,.7,.24,1.24,.54,1.62,.54,.68,1.48,1.02,2.82,1.02,.8,0,1.5-.17,2.1-.51s.91-.87,.91-1.58c0-.54-.24-.95-.73-1.23-.31-.17-.92-.37-1.83-.6l-1.7-.42c-1.09-.27-1.89-.56-2.41-.89-.92-.57-1.38-1.36-1.38-2.37,0-1.19,.43-2.15,1.3-2.88,.87-.73,2.03-1.1,3.5-1.1,1.92,0,3.3,.55,4.14,1.66,.53,.7,.79,1.46,.77,2.27h-1.99c-.04-.47-.21-.91-.52-1.29-.5-.55-1.36-.83-2.58-.83-.82,0-1.43,.15-1.85,.46s-.63,.71-.63,1.2c0,.54,.28,.98,.83,1.31,.32,.19,.79,.37,1.41,.51l1.42,.34c1.54,.37,2.58,.72,3.1,1.07,.82,.54,1.23,1.39,1.23,2.54s-.43,2.08-1.29,2.89c-.86,.81-2.17,1.22-3.92,1.22-1.89,0-3.23-.42-4.02-1.27s-1.21-1.9-1.26-3.15h2.03Z"/></g><g><path class="b" d="M143.76,313.39c.71-1.47,2.11-2.81,4.18-4.01l3.09-1.79c1.39-.81,2.36-1.49,2.92-2.06,.88-.89,1.32-1.92,1.32-3.07,0-1.34-.4-2.41-1.21-3.2s-1.88-1.19-3.22-1.19c-1.99,0-3.36,.75-4.12,2.26-.41,.81-.63,1.93-.68,3.36h-2.95c.03-2.01,.4-3.65,1.11-4.91,1.26-2.23,3.47-3.35,6.65-3.35,2.64,0,4.57,.71,5.79,2.14,1.22,1.43,1.83,3.02,1.83,4.77,0,1.85-.65,3.43-1.95,4.74-.75,.76-2.1,1.69-4.04,2.77l-2.21,1.22c-1.05,.58-1.88,1.13-2.48,1.66-1.08,.94-1.75,1.97-2.03,3.11h12.6v2.74h-15.84c.11-1.99,.52-3.72,1.23-5.19Z"/><path class="b" d="M175.25,299.19c1.03,1.9,1.55,4.51,1.55,7.82,0,3.14-.47,5.73-1.4,7.78-1.35,2.94-3.57,4.42-6.64,4.42-2.77,0-4.83-1.2-6.19-3.61-1.13-2.01-1.69-4.71-1.69-8.09,0-2.62,.34-4.87,1.02-6.75,1.27-3.5,3.56-5.25,6.88-5.25,2.99,0,5.15,1.23,6.48,3.69Zm-2.92,15.37c.89-1.33,1.34-3.81,1.34-7.45,0-2.62-.32-4.78-.97-6.47-.65-1.69-1.9-2.54-3.76-2.54-1.71,0-2.96,.8-3.75,2.41-.79,1.61-1.19,3.97-1.19,7.1,0,2.35,.25,4.24,.76,5.67,.77,2.18,2.1,3.27,3.97,3.27,1.51,0,2.71-.67,3.6-2Z"/><path class="b" d="M180.46,313.39c.71-1.47,2.11-2.81,4.18-4.01l3.09-1.79c1.39-.81,2.36-1.49,2.92-2.06,.88-.89,1.32-1.92,1.32-3.07,0-1.34-.4-2.41-1.21-3.2s-1.88-1.19-3.22-1.19c-1.99,0-3.36,.75-4.12,2.26-.41,.81-.63,1.93-.68,3.36h-2.95c.03-2.01,.4-3.65,1.11-4.91,1.26-2.23,3.47-3.35,6.65-3.35,2.64,0,4.57,.71,5.79,2.14,1.22,1.43,1.83,3.02,1.83,4.77,0,1.85-.65,3.43-1.95,4.74-.75,.76-2.1,1.69-4.04,2.77l-2.21,1.22c-1.05,.58-1.88,1.13-2.48,1.66-1.08,.94-1.75,1.97-2.03,3.11h12.6v2.74h-15.84c.11-1.99,.52-3.72,1.23-5.19Z"/><path class="b" d="M198.82,313.39c.71-1.47,2.11-2.81,4.18-4.01l3.09-1.79c1.39-.81,2.36-1.49,2.92-2.06,.88-.89,1.32-1.92,1.32-3.07,0-1.34-.4-2.41-1.21-3.2s-1.88-1.19-3.22-1.19c-1.99,0-3.36,.75-4.12,2.26-.41,.81-.63,1.93-.68,3.36h-2.95c.03-2.01,.4-3.65,1.11-4.91,1.26-2.23,3.47-3.35,6.65-3.35,2.64,0,4.57,.71,5.79,2.14,1.22,1.43,1.83,3.02,1.83,4.77,0,1.85-.65,3.43-1.95,4.74-.75,.76-2.1,1.69-4.04,2.77l-2.21,1.22c-1.05,.58-1.88,1.13-2.48,1.66-1.08,.94-1.75,1.97-2.03,3.11h12.6v2.74h-15.84c.11-1.99,.52-3.72,1.23-5.19Z"/></g><g><path class="b" d="M108.52,226.87h2.14v2.39h-2.14v-2.39Zm0,4.72h2.14v12.49h-2.14v-12.49Z"/><path class="b" d="M113.85,231.53h2v1.78c.59-.73,1.22-1.26,1.89-1.58s1.4-.48,2.21-.48c1.78,0,2.98,.62,3.61,1.86,.34,.68,.52,1.65,.52,2.92v8.05h-2.14v-7.91c0-.77-.11-1.38-.34-1.85-.38-.78-1.05-1.17-2.04-1.17-.5,0-.91,.05-1.23,.15-.58,.17-1.09,.52-1.52,1.03-.35,.41-.58,.84-.69,1.28s-.16,1.07-.16,1.89v6.57h-2.11v-12.55Z"/></g><g><path class="b" d="M146.65,228.12c1.19,1.15,1.85,2.45,1.98,3.91h-2.27c-.25-1.11-.76-1.99-1.51-2.64s-1.82-.97-3.18-.97c-1.67,0-3.01,.6-4.03,1.79-1.02,1.19-1.54,3.02-1.54,5.48,0,2.02,.46,3.65,1.39,4.91,.92,1.26,2.3,1.88,4.14,1.88,1.69,0,2.97-.66,3.86-1.98,.47-.7,.82-1.61,1.05-2.74h2.27c-.2,1.81-.87,3.33-1.99,4.56-1.35,1.48-3.17,2.21-5.47,2.21-1.98,0-3.64-.61-4.98-1.82-1.77-1.6-2.65-4.08-2.65-7.42,0-2.54,.66-4.62,1.99-6.25,1.44-1.77,3.42-2.65,5.94-2.65,2.15,0,3.83,.57,5.02,1.72Z"/><path class="b" d="M151.53,226.81h2.11v6.42c.5-.63,.95-1.08,1.35-1.34,.68-.45,1.53-.67,2.54-.67,1.82,0,3.05,.64,3.7,1.91,.35,.7,.53,1.66,.53,2.89v8.05h-2.17v-7.91c0-.92-.12-1.6-.35-2.03-.38-.69-1.1-1.03-2.16-1.03-.88,0-1.67,.3-2.38,.9s-1.07,1.74-1.07,3.41v6.66h-2.11v-17.27Z"/><path class="b" d="M171.6,236.49c.48-.06,.81-.26,.97-.61,.09-.19,.14-.46,.14-.81,0-.72-.26-1.25-.77-1.57-.51-.33-1.24-.49-2.19-.49-1.1,0-1.88,.3-2.34,.89-.26,.33-.42,.82-.5,1.47h-1.97c.04-1.55,.54-2.63,1.5-3.24,.96-.61,2.08-.91,3.35-.91,1.47,0,2.67,.28,3.59,.84,.91,.56,1.37,1.44,1.37,2.62v7.23c0,.22,.04,.39,.13,.53,.09,.13,.28,.2,.57,.2,.09,0,.2,0,.32-.02s.24-.03,.38-.05v1.56c-.33,.09-.58,.15-.75,.18s-.41,.04-.7,.04c-.73,0-1.25-.26-1.58-.77-.17-.27-.29-.66-.36-1.16-.43,.56-1.05,1.05-1.85,1.46s-1.69,.62-2.66,.62c-1.16,0-2.12-.35-2.85-1.06s-1.11-1.59-1.11-2.65c0-1.16,.36-2.06,1.09-2.7s1.68-1.03,2.86-1.18l3.36-.42Zm-4.44,5.7c.45,.35,.97,.53,1.58,.53,.74,0,1.46-.17,2.16-.51,1.17-.57,1.76-1.5,1.76-2.8v-1.7c-.26,.17-.59,.3-.99,.41-.41,.11-.8,.19-1.19,.23l-1.27,.16c-.76,.1-1.34,.26-1.72,.48-.65,.37-.98,.95-.98,1.75,0,.61,.22,1.09,.67,1.44Z"/><path class="b" d="M178.28,231.53h2v2.17c.16-.42,.57-.94,1.21-1.54s1.38-.91,2.21-.91c.04,0,.11,0,.2,.01s.25,.02,.48,.05v2.23c-.12-.02-.24-.04-.35-.05s-.22-.01-.35-.01c-1.06,0-1.88,.34-2.45,1.03s-.86,1.47-.86,2.36v7.22h-2.11v-12.55Z"/><path class="b" d="M186.27,226.87h2.11v17.21h-2.11v-17.21Z"/><path class="b" d="M199.3,231.88c.83,.42,1.46,.96,1.9,1.62,.42,.63,.7,1.37,.84,2.21,.12,.58,.19,1.5,.19,2.77h-9.13c.04,1.28,.34,2.3,.9,3.07,.56,.77,1.42,1.16,2.59,1.16,1.09,0,1.96-.37,2.62-1.09,.36-.42,.62-.91,.77-1.47h2.07c-.05,.46-.24,.97-.54,1.54s-.65,1.03-1.03,1.39c-.64,.62-1.42,1.05-2.36,1.27-.5,.12-1.07,.19-1.71,.19-1.55,0-2.87-.57-3.95-1.71-1.08-1.14-1.62-2.73-1.62-4.78s.54-3.65,1.63-4.91c1.09-1.26,2.51-1.89,4.26-1.89,.88,0,1.74,.21,2.57,.63Zm.76,4.93c-.08-.91-.28-1.64-.59-2.19-.57-1.02-1.53-1.52-2.87-1.52-.96,0-1.77,.35-2.42,1.05s-1,1.59-1.03,2.67h6.91Z"/><path class="b" d="M206.15,240.14c.06,.7,.24,1.24,.54,1.62,.54,.68,1.48,1.02,2.82,1.02,.8,0,1.5-.17,2.1-.51s.91-.87,.91-1.58c0-.54-.24-.95-.73-1.23-.31-.17-.92-.37-1.83-.6l-1.7-.42c-1.09-.27-1.89-.56-2.41-.89-.92-.57-1.38-1.36-1.38-2.37,0-1.19,.43-2.15,1.3-2.88,.87-.73,2.03-1.1,3.5-1.1,1.92,0,3.3,.55,4.14,1.66,.53,.7,.79,1.46,.77,2.27h-1.99c-.04-.47-.21-.91-.52-1.29-.5-.55-1.36-.83-2.58-.83-.82,0-1.43,.15-1.85,.46s-.63,.71-.63,1.2c0,.54,.28,.98,.83,1.31,.32,.19,.79,.37,1.41,.51l1.42,.34c1.54,.37,2.58,.72,3.1,1.07,.82,.54,1.23,1.39,1.23,2.54s-.43,2.08-1.29,2.89c-.86,.81-2.17,1.22-3.92,1.22-1.89,0-3.23-.42-4.02-1.27s-1.21-1.9-1.26-3.15h2.03Z"/><path class="b" d="M217.32,228.03h2.13v3.5h2v1.72h-2v8.19c0,.44,.15,.73,.45,.88,.16,.09,.44,.13,.82,.13,.1,0,.21,0,.33,0s.25-.02,.41-.04v1.68c-.24,.07-.49,.12-.76,.15s-.54,.05-.85,.05c-.98,0-1.65-.25-2-.76s-.53-1.16-.53-1.96v-8.31h-1.7v-1.72h1.7v-3.5Z"/><path class="b" d="M232.66,232.78c1.11,1.08,1.66,2.66,1.66,4.75s-.49,3.69-1.47,5.01c-.98,1.32-2.49,1.98-4.55,1.98-1.71,0-3.08-.58-4.08-1.75s-1.51-2.73-1.51-4.7c0-2.11,.53-3.79,1.59-5.04,1.06-1.25,2.49-1.87,4.28-1.87,1.61,0,2.96,.54,4.07,1.62Zm-1.31,8.34c.51-1.06,.77-2.23,.77-3.53,0-1.17-.19-2.12-.56-2.86-.59-1.16-1.6-1.73-3.04-1.73-1.28,0-2.2,.49-2.78,1.47s-.87,2.17-.87,3.56,.29,2.45,.87,3.34,1.5,1.33,2.76,1.33c1.38,0,2.33-.53,2.84-1.59Z"/><path class="b" d="M236.91,231.53h2v1.78c.59-.73,1.22-1.26,1.89-1.58s1.4-.48,2.21-.48c1.78,0,2.98,.62,3.61,1.86,.34,.68,.52,1.65,.52,2.92v8.05h-2.14v-7.91c0-.77-.11-1.38-.34-1.85-.38-.78-1.05-1.17-2.04-1.17-.5,0-.91,.05-1.23,.15-.58,.17-1.09,.52-1.52,1.03-.35,.41-.58,.84-.69,1.28s-.16,1.07-.16,1.89v6.57h-2.11v-12.55Z"/></g><g><path class="b" d="M145.3,101.75c-.23,.24-.61,.24-.85,0l-25.05-24.74c-.24-.23-.24-.61,0-.85l24.74-25.05c.23-.24,.61-.24,.85,0l10.26,10.14,5.05-5.11-15.37-15.18c-.24-.23-.61-.23-.85,0l-34.83,35.27c-.23,.24-.23,.61,0,.85l35.27,34.83c.24,.23,.61,.23,.85,0l13.33-13.49-5.11-5.05-8.28,8.38Z"/><path class="b" d="M170.82,77.09c-.24-.23-.24-.61,0-.85l4.85-4.91-10.26-10.13-5.05,5.11,9.68,9.55c.24,.23,.24,.61,0,.85l-8.3,8.43,5.11,5.05,8.5-8.62-4.52-4.47Z"/><path class="b" d="M150.61,76.18l8.07-8.19-5.11-5.05-13.11,13.3c-.23,.24-.23,.61,0,.85l14.79,14.6,5.05-5.11-9.68-9.55c-.24-.23-.24-.61,0-.85Z"/><path class="b" d="M176.51,101.75c-.23,.24-.61,.24-.85,0l-10.26-10.14-5.05,5.11,15.37,15.18c.24,.23,.61,.23,.85,0l12.79-12.97-5.11-5.05-7.74,7.86Z"/><path class="b" d="M175.35,51.13c.23-.24,.61-.24,.85,0l9.83,9.71,5.05-5.11-14.94-14.76c-.24-.23-.61-.23-.85,0l-13.56,13.75,5.11,5.05,8.51-8.64Z"/><path class="b" d="M201.24,75.86c.24,.23,.24,.61,0,.85l-8.81,8.94,5.11,5.05,13.86-14.05c.23-.24,.23-.61,0-.85l-15.21-15.02-5.05,5.11,10.1,9.98Z"/><rect class="b" x="156.74" y="57.64" width="7.18" height="7.18" transform="translate(4.11 132.28) rotate(-45.36)"/><rect class="b" x="156.73" y="88.06" width="7.18" height="7.18" transform="translate(-17.55 141.33) rotate(-45.36)"/><path class="b" d="M180.97,76.18l8.14-8.27-5.11-5.05-8.33,8.46,4.52,4.47c.24,.23,.24,.61,0,.85l-4.85,4.91,10.69,10.56,5.05-5.11-10.1-9.98c-.24-.23-.24-.61,0-.85Z"/><path class="b" d="M241.76,75.8l-35.27-34.83c-.24-.23-.61-.23-.85,0l-13.57,13.75,5.11,5.05,8.52-8.64c.23-.24,.61-.24,.85,0l25.05,24.74c.24,.23,.24,.61,0,.85l-24.74,25.05c-.23,.24-.61,.24-.85,0l-9.83-9.71-5.05,5.11,14.94,14.76c.24,.23,.61,.23,.85,0l34.83-35.27c.23-.24,.23-.61,0-.85Z"/><path class="b" d="M170.82,77.09l4.52,4.47,4.85-4.91c.23-.24,.23-.61,0-.85l-4.52-4.47-4.85,4.91c-.23,.24-.23,.61,0,.85Z"/><rect class="b" x="187.52" y="88.49" width="7.18" height="7.18" transform="translate(-8.69 163.36) rotate(-45.36)"/><rect class="b" x="187.52" y="57.21" width="7.18" height="7.18" transform="translate(13.56 154.05) rotate(-45.36)"/></g><path class="b" d="M284.66,183.77H73.67c-.83,0-1.5-.67-1.5-1.5s.67-1.5,1.5-1.5h210.99c.83,0,1.5,.67,1.5,1.5s-.67,1.5-1.5,1.5Z"/><g><path class="b" d="M85.9,135.95v4.3h-12.29v4.99h11.28v3.98h-11.28v5.7h12.55v4.3h-17.67v-23.27h17.4Z"/><path class="b" d="M87.89,142.37h5.28l2.97,4.4,2.93-4.4h5.12l-5.54,7.89,6.22,8.96h-5.28l-3.52-5.31-3.52,5.31h-5.18l6.06-8.87-5.54-7.99Z"/><path class="b" d="M111.03,142.37v2.15h.07c.56-.91,1.28-1.58,2.15-1.99,.87-.41,1.83-.62,2.87-.62,1.33,0,2.47,.25,3.42,.75,.96,.5,1.75,1.16,2.38,1.99,.63,.83,1.1,1.79,1.4,2.88,.3,1.1,.46,2.24,.46,3.44,0,1.13-.15,2.22-.46,3.26s-.77,1.97-1.38,2.77c-.62,.8-1.39,1.45-2.31,1.92-.92,.48-2,.72-3.24,.72-1.04,0-2-.21-2.88-.64s-1.6-1.05-2.17-1.87h-.06v7.99h-4.63v-22.75h4.4Zm6.01,13.36c.51-.3,.92-.7,1.24-1.19,.31-.49,.54-1.06,.67-1.71,.13-.65,.2-1.31,.2-1.99s-.07-1.34-.21-1.99c-.14-.65-.37-1.23-.7-1.74-.33-.51-.75-.92-1.25-1.24-.51-.31-1.14-.47-1.87-.47s-1.4,.16-1.91,.47c-.51,.32-.92,.72-1.24,1.22-.32,.5-.54,1.08-.67,1.73-.13,.65-.2,1.33-.2,2.02s.07,1.34,.21,1.99c.14,.65,.37,1.22,.68,1.71,.32,.49,.73,.89,1.25,1.19,.52,.3,1.15,.46,1.89,.46s1.4-.15,1.91-.46Z"/><path class="b" d="M131.5,155.18c.7,.67,1.7,1.01,3,1.01,.93,0,1.74-.23,2.41-.7,.67-.47,1.09-.96,1.24-1.48h4.07c-.65,2.02-1.65,3.47-3,4.33s-2.98,1.3-4.89,1.3c-1.33,0-2.52-.21-3.58-.64-1.07-.42-1.97-1.03-2.71-1.81-.74-.78-1.31-1.72-1.71-2.8-.4-1.09-.6-2.28-.6-3.58s.21-2.43,.62-3.52c.41-1.09,1-2.03,1.76-2.82s1.67-1.42,2.72-1.87c1.05-.46,2.22-.68,3.5-.68,1.43,0,2.68,.28,3.75,.83,1.06,.55,1.94,1.3,2.62,2.23,.68,.93,1.18,2,1.48,3.19s.41,2.44,.33,3.75h-12.16c.07,1.5,.45,2.59,1.14,3.26Zm5.23-8.87c-.55-.61-1.4-.91-2.53-.91-.74,0-1.35,.12-1.84,.38-.49,.25-.88,.56-1.17,.93-.29,.37-.5,.76-.62,1.17-.12,.41-.19,.78-.21,1.11h7.53c-.22-1.17-.6-2.06-1.16-2.67Z"/><path class="b" d="M149.65,142.37v3.13h.07c.22-.52,.51-1,.88-1.45,.37-.45,.79-.83,1.27-1.14,.48-.32,.99-.56,1.53-.73s1.11-.26,1.7-.26c.3,0,.64,.05,1.01,.16v4.3c-.22-.04-.48-.08-.78-.11-.3-.03-.6-.05-.88-.05-.85,0-1.56,.14-2.15,.42-.59,.28-1.06,.67-1.42,1.16-.36,.49-.61,1.06-.77,1.71-.15,.65-.23,1.36-.23,2.12v7.59h-4.63v-16.85h4.4Z"/><path class="b" d="M168,142.37v3.1h-3.39v8.34c0,.78,.13,1.3,.39,1.56s.78,.39,1.56,.39c.26,0,.51-.01,.75-.03s.47-.05,.68-.1v3.58c-.39,.07-.83,.11-1.3,.13-.48,.02-.95,.03-1.4,.03-.72,0-1.4-.05-2.04-.15-.64-.1-1.21-.29-1.7-.57-.49-.28-.88-.68-1.16-1.21s-.42-1.21-.42-2.05v-9.94h-2.8v-3.1h2.8v-5.05h4.63v5.05h3.39Z"/><path class="b" d="M171.98,139.76v-3.81h4.63v3.81h-4.63Zm4.63,2.61v16.85h-4.63v-16.85h4.63Z"/><path class="b" d="M184.15,155.03c.21,.36,.47,.65,.8,.88,.33,.23,.7,.4,1.12,.51s.86,.16,1.32,.16c.33,0,.67-.04,1.03-.11s.68-.2,.98-.36,.54-.38,.73-.65c.2-.27,.29-.61,.29-1.03,0-.7-.46-1.22-1.38-1.56-.92-.35-2.21-.7-3.86-1.04-.67-.15-1.33-.33-1.97-.54-.64-.21-1.21-.48-1.71-.81-.5-.34-.9-.76-1.21-1.27-.3-.51-.46-1.13-.46-1.87,0-1.09,.21-1.98,.64-2.67,.42-.7,.98-1.24,1.68-1.65s1.48-.68,2.35-.85,1.76-.24,2.67-.24,1.8,.09,2.66,.26,1.62,.47,2.3,.88c.67,.41,1.23,.96,1.68,1.65,.44,.68,.71,1.55,.8,2.59h-4.4c-.07-.89-.4-1.49-1.01-1.81-.61-.31-1.33-.47-2.15-.47-.26,0-.54,.02-.85,.05-.3,.03-.58,.1-.83,.21-.25,.11-.46,.27-.63,.47-.17,.21-.26,.48-.26,.83,0,.41,.15,.75,.46,1.01,.3,.26,.7,.47,1.19,.64s1.05,.31,1.68,.44c.63,.13,1.27,.27,1.92,.42,.67,.15,1.33,.34,1.97,.55s1.21,.5,1.71,.86,.9,.8,1.21,1.34,.46,1.19,.46,1.97c0,1.11-.22,2.04-.67,2.79-.45,.75-1.03,1.35-1.74,1.81-.72,.46-1.54,.78-2.46,.96-.92,.18-1.86,.28-2.82,.28s-1.93-.1-2.87-.29c-.93-.2-1.77-.52-2.49-.98-.73-.46-1.33-1.06-1.79-1.81-.47-.75-.72-1.69-.77-2.82h4.4c0,.5,.1,.93,.31,1.29Z"/><path class="b" d="M202.71,155.18c.7,.67,1.7,1.01,3,1.01,.93,0,1.74-.23,2.41-.7,.67-.47,1.09-.96,1.24-1.48h4.07c-.65,2.02-1.65,3.47-3,4.33s-2.98,1.3-4.89,1.3c-1.33,0-2.52-.21-3.58-.64-1.07-.42-1.97-1.03-2.71-1.81-.74-.78-1.31-1.72-1.71-2.8-.4-1.09-.6-2.28-.6-3.58s.21-2.43,.62-3.52c.41-1.09,1-2.03,1.76-2.82s1.67-1.42,2.72-1.87c1.05-.46,2.22-.68,3.5-.68,1.43,0,2.68,.28,3.75,.83,1.06,.55,1.94,1.3,2.62,2.23,.68,.93,1.18,2,1.48,3.19s.41,2.44,.33,3.75h-12.16c.07,1.5,.45,2.59,1.14,3.26Zm5.23-8.87c-.55-.61-1.4-.91-2.53-.91-.74,0-1.35,.12-1.84,.38-.49,.25-.88,.56-1.17,.93-.29,.37-.5,.76-.62,1.17-.12,.41-.19,.78-.21,1.11h7.53c-.22-1.17-.6-2.06-1.16-2.67Z"/><path class="b" d="M221.78,154.2v5.02h-5.12v-5.02h5.12Z"/><path class="b" d="M233.58,145.4c-.74,0-1.36,.17-1.86,.5-.5,.34-.91,.77-1.22,1.3-.32,.53-.54,1.12-.67,1.76-.13,.64-.2,1.28-.2,1.91s.06,1.23,.2,1.86c.13,.63,.34,1.2,.64,1.71,.29,.51,.69,.93,1.19,1.25,.5,.33,1.11,.49,1.83,.49,1.11,0,1.96-.31,2.56-.93,.6-.62,.97-1.45,1.12-2.49h4.47c-.3,2.24-1.17,3.94-2.61,5.12-1.43,1.17-3.27,1.76-5.51,1.76-1.26,0-2.42-.21-3.47-.64-1.05-.42-1.95-1.02-2.69-1.78-.74-.76-1.31-1.67-1.73-2.72-.41-1.05-.62-2.21-.62-3.47s.19-2.51,.57-3.63,.94-2.09,1.68-2.9c.74-.81,1.64-1.45,2.71-1.91,1.06-.46,2.28-.68,3.65-.68,1,0,1.96,.13,2.88,.39,.92,.26,1.75,.66,2.48,1.19,.73,.53,1.32,1.2,1.78,1.99,.46,.79,.72,1.73,.78,2.82h-4.53c-.3-1.93-1.45-2.9-3.42-2.9Z"/><path class="b" d="M244.33,147.14c.41-1.1,1-2.03,1.76-2.8,.76-.77,1.67-1.37,2.74-1.79,1.06-.42,2.26-.64,3.58-.64s2.53,.21,3.6,.64c1.08,.42,1.99,1.02,2.75,1.79,.76,.77,1.35,1.71,1.76,2.8,.41,1.1,.62,2.32,.62,3.67s-.21,2.56-.62,3.65c-.41,1.09-1,2.02-1.76,2.79-.76,.77-1.68,1.36-2.75,1.78-1.08,.41-2.28,.62-3.6,.62s-2.52-.21-3.58-.62c-1.06-.41-1.98-1-2.74-1.78-.76-.77-1.35-1.7-1.76-2.79-.41-1.09-.62-2.3-.62-3.65s.21-2.57,.62-3.67Zm4.21,5.64c.13,.64,.35,1.22,.67,1.73,.31,.51,.73,.92,1.25,1.22,.52,.3,1.17,.46,1.96,.46s1.44-.15,1.97-.46c.53-.3,.96-.71,1.27-1.22,.32-.51,.54-1.09,.67-1.73,.13-.64,.2-1.3,.2-1.97s-.07-1.34-.2-1.99c-.13-.65-.35-1.23-.67-1.73-.32-.5-.74-.91-1.27-1.22-.53-.31-1.19-.47-1.97-.47s-1.43,.16-1.96,.47c-.52,.32-.94,.72-1.25,1.22-.32,.5-.54,1.08-.67,1.73-.13,.65-.2,1.32-.2,1.99s.06,1.33,.2,1.97Z"/><path class="b" d="M268.42,142.37v2.28h.07c.61-.87,1.34-1.54,2.2-2.02,.86-.48,1.84-.72,2.95-.72s2.04,.21,2.92,.62c.88,.41,1.55,1.14,2,2.18,.5-.74,1.18-1.39,2.04-1.96,.86-.57,1.87-.85,3.05-.85,.89,0,1.72,.11,2.48,.33,.76,.22,1.41,.56,1.96,1.04,.54,.48,.97,1.1,1.27,1.87,.3,.77,.46,1.7,.46,2.79v11.28h-4.63v-9.55c0-.56-.02-1.1-.07-1.6-.04-.5-.16-.93-.36-1.3s-.48-.66-.86-.88c-.38-.22-.9-.33-1.55-.33s-1.18,.12-1.58,.38c-.4,.25-.72,.58-.95,.98-.23,.4-.38,.86-.46,1.37s-.11,1.03-.11,1.55v9.39h-4.63v-9.45c0-.5-.01-.99-.03-1.48-.02-.49-.11-.94-.28-1.35-.16-.41-.43-.74-.81-.99-.38-.25-.94-.38-1.68-.38-.22,0-.5,.05-.86,.15-.36,.1-.71,.28-1.04,.55-.34,.27-.62,.66-.86,1.17s-.36,1.18-.36,2v9.78h-4.63v-16.85h4.37Z"/></g><g><polyline class="b" points="51.1 96.58 50.96 80.03 40.88 92.11 41.76 108.65"/><path class="b" d="M130.58,306.77c-.18,0-.37-.03-.54-.1C46.52,274.15,9.18,195.09,39.22,114.41c.29-.78,1.15-1.17,1.93-.88,.78,.29,1.17,1.15,.88,1.93-29.44,79.05,7.2,156.54,89.09,188.42,.77,.3,1.15,1.17,.85,1.94-.23,.59-.8,.96-1.4,.96Z"/><polygon class="b" points="34.09 113.05 27.45 105.29 22.85 117.2 29.34 126.25 34.09 113.05"/><polygon class="b" points="56.35 113.24 45.99 116.94 41.92 130.92 52.04 127.74 56.35 113.24"/><polygon class="b" points="25.79 142.79 17.44 134.89 14.92 150.79 23.86 158.88 25.79 142.79"/><polygon class="b" points="49.28 138.32 37.64 144.82 35.94 160.11 48.39 153.97 49.28 138.32"/><polygon class="b" points="25.04 171.82 14 163.81 14 180.93 25.04 187.98 25.04 171.82"/><polygon class="b" points="47.32 163.52 35.94 171.78 36.76 187.3 48.07 179.84 47.32 163.52"/><polygon class="b" points="28.03 200.89 16.05 194.94 18.64 211.14 31.39 216.03 28.03 200.89"/><polygon class="b" points="39.92 197.63 42.61 214.02 53.43 202.71 49.89 187.3 39.92 197.63"/><polygon class="b" points="38 227.82 22.57 224.37 28.23 239.32 43.85 242.2 38 227.82"/><polygon class="b" points="55.83 210.1 48.07 223.51 54.97 237.5 62.92 224.37 55.83 210.1"/><polygon class="b" points="62.36 246.96 71.51 259.83 76.88 246.02 67.8 233.62 62.36 246.96"/><polygon class="b" points="53.2 253.83 36.38 253.83 44.36 267.33 62.04 267.33 53.2 253.83"/><polygon class="b" points="73.17 276.8 55.72 280.83 66.25 291.96 85.09 288.41 73.17 276.8"/><polygon class="b" points="99.14 297.8 84.3 305.93 95.91 314.46 113.35 305.27 99.14 297.8"/><polygon class="b" points="83 253.49 80.51 268.73 92.74 279.27 95.01 264.84 83 253.49"/><polygon class="b" points="101.09 269.24 104.24 287.77 117.5 293.92 116.18 279.27 101.09 269.24"/></g><g><polyline class="b" points="308.9 96.58 309.04 80.03 319.12 92.11 318.24 108.65"/><path class="b" d="M229.42,306.77c-.6,0-1.17-.36-1.4-.96-.3-.77,.08-1.64,.85-1.94,81.89-31.88,118.53-109.36,89.09-188.42-.29-.78,.11-1.64,.88-1.93,.78-.29,1.64,.11,1.93,.88,30.05,80.69-7.3,159.75-90.81,192.26-.18,.07-.36,.1-.54,.1Z"/><polygon class="b" points="325.91 113.05 332.55 105.29 337.15 117.2 330.66 126.25 325.91 113.05"/><polygon class="b" points="303.65 113.24 314.01 116.94 318.08 130.92 307.96 127.74 303.65 113.24"/><polygon class="b" points="334.21 142.79 342.56 134.89 345.08 150.79 336.14 158.88 334.21 142.79"/><polygon class="b" points="310.72 138.32 322.36 144.82 324.06 160.11 311.61 153.97 310.72 138.32"/><polygon class="b" points="334.96 171.82 346 163.81 346 180.93 334.96 187.98 334.96 171.82"/><polygon class="b" points="312.68 163.52 324.06 171.78 323.24 187.3 311.93 179.84 312.68 163.52"/><polygon class="b" points="331.97 200.89 343.95 194.94 341.36 211.14 328.61 216.03 331.97 200.89"/><polygon class="b" points="320.08 197.63 317.39 214.02 306.57 202.71 310.11 187.3 320.08 197.63"/><polygon class="b" points="322 227.82 337.43 224.37 331.77 239.32 316.15 242.2 322 227.82"/><polygon class="b" points="304.17 210.1 311.93 223.51 305.03 237.5 297.08 224.37 304.17 210.1"/><polygon class="b" points="297.64 246.96 288.49 259.83 283.12 246.02 292.2 233.62 297.64 246.96"/><polygon class="b" points="306.8 253.83 323.62 253.83 315.64 267.33 297.96 267.33 306.8 253.83"/><polygon class="b" points="286.83 276.8 304.28 280.83 293.75 291.96 274.91 288.41 286.83 276.8"/><polygon class="b" points="260.86 297.8 275.7 305.93 264.09 314.46 246.65 305.27 260.86 297.8"/><polygon class="b" points="277 253.49 279.49 268.73 267.26 279.27 264.99 264.84 277 253.49"/><polygon class="b" points="258.91 269.24 255.76 287.77 242.5 293.92 243.82 279.27 258.91 269.24"/></g></svg>