<svg id="Layer_1" data-name="Layer 1" xmlns="http://www.w3.org/2000/svg" width="2in" height="2in" viewBox="0 0 144 144"><defs><style>.cls-1{fill:#00263a;}</style></defs><path class="cls-1" d="M100.13,45.36,46,99.45c-.8.8-1.89,1-2.44.46s-.34-1.64.46-2.45L98.15,43.37c.8-.8,1.89-1,2.44-.45S100.93,44.56,100.13,45.36Z"/><path class="cls-1" d="M85.83,98.7l9.46-14.57H86.7V81.21H99.58V83.3L90.11,97.86h9.55v2.92H85.83Z"/><path class="cls-1" d="M43,43.41H54.73v2.93h-8.3v5h7v2.92h-7v5.8H55V63H43Z"/><path class="cls-1" d="M72,133.86A61.86,61.86,0,1,1,133.86,72,61.93,61.93,0,0,1,72,133.86ZM72,13a59,59,0,1,0,59,59A59.1,59.1,0,0,0,72,13Z"/></svg>