<svg id="Layer_1" data-name="Layer 1" xmlns="http://www.w3.org/2000/svg" width="50" height="50" viewBox="0 0 50 50"><defs><style>.cls-1{fill:#fff;}.cls-2{fill:#00263a;fill-rule:evenodd;}</style></defs><rect class="cls-1" width="50" height="50"/><path class="cls-2" d="M38.16,32.31c1.35-2.62,1.65-2.51.88-.87-.6,1.28.64-.75.12.47a19.42,19.42,0,0,1-1,2c-.58.75.53-.34,0,.37-.88,1-3.57,6.78-13.48,5.36C29,41.5,33,40.3,36.37,38.74c0,0,0,0,0,0-.24.15-1.21,2-7,3.2,0,0-3.54.78-9.81-1.31.25.77.44.88.44.88-14.29-4-17.46-28.36,2.24-32.95,3.45-.83,8.64-.3,10.87.78,2.32.62-.4.94-.4.94s-.47.84,1.07.74,4,1.17,2.62,1a4.07,4.07,0,0,0-2.63.49c2.18-.18,5.27,1.48,5.61,2.36.86,1.44-1.69,2.53-3,.43,0-.05.43.7.64,1a10.37,10.37,0,0,1,2.52,4.67c.13.62-1.41-2.59-3.05-3.31.2,1.9.39,4.12-.83,1.5-.28-.61-1.38-2.35-2.12-2.53s-2-1.68-2.78-1.11-.86-.45-2.34.45-3.48-.23-5.09,0c-1.37.16-5.55,2.65-6,3.17-.33.35-.9.27-.52-.13.72-.77,2.5-2.49,2.83-2.38-.76-.34-2.54,1.41-3.31,1.91-2.51,2.17-5.52,13.31,5.71,17.91a10.67,10.67,0,0,0,7.69,0c.89.15-2.81,1.27-1.91,1.27,4.37,0,8.12-1.6,10.29-5.29"/></svg>