<svg id="Layer_1" data-name="Layer 1" xmlns="http://www.w3.org/2000/svg" width="1.67in" height="1.87in" viewBox="0 0 120.45 134.92"><defs><style>.cls-1{fill:#002a3f;}</style></defs><path id="Path_432" data-name="Path 432" class="cls-1" d="M116.88,77.93l-17.17-.17h0a2,2,0,0,0,0,4l6.39.06c1.27,10.56-3.39,18.72-7.66,23.79-8.28,9.83-21.91,16.11-36,16.68V88.36h0V51.22H80.91A2.26,2.26,0,0,0,83.17,49h0a2.26,2.26,0,0,0-2.26-2.25H62.43V38.86h0V25.69A12.07,12.07,0,0,0,72,11.59h0A12.05,12.05,0,0,0,57.93,2h0A12,12,0,0,0,48.34,16.1h0a12,12,0,0,0,9.58,9.59V36.86h0V44.4h0v1.17h0v1.14H39.44a2.25,2.25,0,0,0,0,4.5H57.92v1h0V76.08h0v2h0l0,44.2C44,121.62,30.5,115.36,22.28,105.6c-4.26-5.06-8.92-13.2-7.66-23.74l6.35.06h0a2,2,0,0,0,0-4L3.85,77.76h0a2,2,0,0,0,0,4l6.8.07c-.95,9.28,2.06,18.56,8.63,26.36,9,10.63,23.62,17.43,38.71,18.1v4.48a2.26,2.26,0,1,0,4.51.21v-4.68c15.2-.58,30-7.39,39-18.1C108,100.4,111,91.13,110.1,81.87l6.75.06h0a2,2,0,0,0,0-4ZM52.64,13.86h0a7.55,7.55,0,1,1,15.09-.07h0a7.55,7.55,0,0,1-7,7.56,2.24,2.24,0,0,0-1,0A7.53,7.53,0,0,1,52.64,13.86Z"/></svg>