<svg id="Layer_1" data-name="Layer 1" xmlns="http://www.w3.org/2000/svg" width="0.43in" height="0.5in" viewBox="0 0 30.87 36.34"><defs><style>.cls-1{fill:#002a3f;}</style></defs><path class="cls-1" d="M29.77,18.12h0A3.75,3.75,0,0,1,27,16.42a7.11,7.11,0,0,1-1-2.21s0-.05,0-.07c-1.17-4.59.41-11.29.42-11.35a.64.64,0,0,0-.32-.72L23.32.53h0l-.07,0-.06,0H7.69l0,0-.07,0L4.7,2.08a.63.63,0,0,0-.32.71c0,.07,1.59,6.78.42,11.37v0a7.07,7.07,0,0,1-1,2.24,3.75,3.75,0,0,1-2.73,1.7.63.63,0,0,0-.55.64V35.24a.63.63,0,0,0,.18.45.68.68,0,0,0,.46.19H29.68a.65.65,0,0,0,.65-.64V18.76A.65.65,0,0,0,29.77,18.12ZM1.84,25.05V19.3a5.06,5.06,0,0,0,2.9-1.93h10v7.68ZM14.78,15v1.13H5.49A8.12,8.12,0,0,0,5.91,15Zm0-1.29H6.23C7,9.57,6.08,4.55,5.75,3L7.5,2c2.86,8,6,10.34,7.29,11Zm-6-11.91H22.1c-.62,1.68-3.28,8.46-6.67,10.16C12,10.21,9.39,3.43,8.77,1.75ZM24.64,13.66H16.08V13c1.28-.67,4.43-3,7.29-11L25.13,3C24.8,4.54,23.87,9.57,24.64,13.66Zm-8.56,2.42V15H25a9.7,9.7,0,0,0,.43,1.13ZM29,26.34v1.13h-13V26.34Zm0,2.42v.73h-13v-.73Zm0,2v1.13h-13V30.78Zm0,2.42v1.39h-13V33.2Zm-13-8.15V17.38H26.13A5,5,0,0,0,29,19.3v5.75ZM1.84,27.47V26.34h13v1.13Zm0,2v-.73h13v.73Zm0,2.42V30.78h13v1.13Zm0,2.68V33.2h13v1.39ZM26,14.18Z"/></svg>