<svg id="Layer_1" data-name="Layer 1" xmlns="http://www.w3.org/2000/svg" width="1.03in" height="1.04in" viewBox="0 0 74.36 75.13"><defs><style>.cls-1{fill:#002a3f;}</style></defs><path id="Path_257" data-name="Path 257" class="cls-1" d="M57.41,53.67a.72.72,0,0,0-.63-.32c-1.71-2.48-3.83-4.21-5.27-4.27a1.52,1.52,0,0,0-1.31.6,1.23,1.23,0,0,0-.13,1.3c.47,1.08,2.66,2.5,5.1,3.16A58.62,58.62,0,0,1,27.58,54v0c4.33-2.53,5.73-6.62,3-7.25C27.57,46,26.67,50,26.31,53.1a1,1,0,0,0-.67.61l-.67,0a3.69,3.69,0,0,1-1.4-1.26c-1.19-1.42-3-3.56-5.55-3.07a3.68,3.68,0,0,0-2.46,1.41,2.62,2.62,0,0,0-.4,1.81.37.37,0,0,0,.73-.15,1.84,1.84,0,0,1,.15-1,2.62,2.62,0,0,1,2.12-1.35c2.68-.52,4.45,2.54,5.63,3.7-2.88.31-5,1.12-5.9,2.25a1.94,1.94,0,0,0-.35,1.75,1.71,1.71,0,0,0,1.82,1.23c1.85,0,4.6-1.61,6.82-4v.38c-.46,1.32-2.07,2.41-2.67,3.86-.85,2,.75,4.08.82,4.17a.37.37,0,0,0,.66-.24.35.35,0,0,0-.08-.22s-1.4-1.8-.72-3.42a18.14,18.14,0,0,1,2.08-2.78c.58,4.73,3.69,9,6.35,11.79A41.66,41.66,0,0,0,39,74.17c.1.07.18.07.41.07,1.74,0,4.72,0,4.74,0a.33.33,0,0,0,.21-.07,41.66,41.66,0,0,0,6.4-5.54c2.9-3.09,5.49-6.9,6.24-11.1a15.35,15.35,0,0,0,1.22,3,3.93,3.93,0,0,1-.8,5.19.38.38,0,0,0,.27.64.36.36,0,0,0,.26-.11c1.24-1.24,2.47-3,.93-6.06a13.77,13.77,0,0,1-1.59-5c1.62,1.49,4.58,3.16,6.38,3.16a1.38,1.38,0,0,0,1.56-1.19.34.34,0,0,0,0-.1,1.93,1.93,0,0,0-.58-1.57C63.24,54,59.45,53.64,57.41,53.67Zm-39.16,4a1.19,1.19,0,0,1,.23-1.1c.82-1.08,3.24-1.84,6.37-2a2.4,2.4,0,0,0,.75.12c-3.09,3.3-6.9,4.66-7.35,3ZM29,47.66a1.7,1.7,0,0,1,1.45-.24.91.91,0,0,1,.79.83c.15,1.29-1.41,3.51-4,5l-.18-.12c.35-3,1-4.83,1.95-5.51Zm7.58,23.68c-4.68-4-9.51-9.69-9.66-15.76A2.2,2.2,0,0,0,27,55a1.08,1.08,0,0,0,.18-.11C32,58,37.74,67,38.94,73.2c-.14-.08-1.33-1-2.36-1.86Zm14.21-21.2a.77.77,0,0,1,.7-.31c1.14,0,3,1.6,4.53,3.74-2.76-.58-5.93-2.5-5.23-3.44ZM44.45,73.2c1.22-6.26,7-15.27,11.8-18.4-.63,1.12-2.47,1.63-3.22,3.86a5.23,5.23,0,0,0,.17,3.83.37.37,0,1,0,.72-.2h0c-.39-1.42-.67-1.95-.18-3.4.56-1.67,1.86-2.21,2.73-3.14-.26,6.77-6.54,13.48-12,17.45ZM64.52,57a.56.56,0,0,1-.45.57c-1.34.37-4.85-1.51-6.46-3.11,1.78,0,5.31.3,6.54,1.56a1.19,1.19,0,0,1,.37,1Z"/><path id="Path_258" data-name="Path 258" class="cls-1" d="M73.26,41a2,2,0,0,1-1.52-.48c-1.28-1.41,1.36-6-2-6.93,0-2-.85-4.33-2.49-5.22C64.32,26.83,62.05,31.6,60,34a42.33,42.33,0,0,0-8-14.8c.36-2.24.34-7.35-2-9.24-1.13-.89-1.82-1.26-3.79-3,2.28-1.64,3.34-3.8,3-5A1.35,1.35,0,0,0,48,.91a1.94,1.94,0,0,0-1.6.48c-.86.79-1.24,2.46-1.2,5.24l-.88.14a1.35,1.35,0,0,1-.42-.2c-.91-.64-2.8-3.25-5.28-2.46a2.89,2.89,0,0,0-1.8,1.33,2.1,2.1,0,0,0-.15,1.48.39.39,0,0,0,.47.24.37.37,0,0,0,.24-.47c0-.13-.34-1.3,1.46-1.87,1.54-.49,2.88.77,3.85,1.68.2.19.38.36.55.5-2.1.51-3.63,1.31-4.18,2.24a1.48,1.48,0,0,0,.42,2.06,1,1,0,0,0,.17.1c-3.69,1.84-7.61,3.35-8.8,7.74A42.05,42.05,0,0,0,22.64,34.3c-2.5-.59-4.32,1-8,4.32-1.75,1.6-3.09.92-4.64.11s-3-1.57-4.85,0A15,15,0,0,0,.74,45.2a.38.38,0,0,0,.28.45.38.38,0,0,0,.44-.25,14.37,14.37,0,0,1,4.19-6.11c1.42-1.24,2.63-.62,4,.1,1.57.82,3.35,1.74,5.48-.22,3.69-3.38,5.29-4.74,7.56-4.08a12.54,12.54,0,0,0,16.73.13,4,4,0,0,0,3.84,0,12.54,12.54,0,0,0,16.8-.2c2-1.92,4.35-7.29,6.76-6,1.34.72,2.07,2.7,2.1,4.42-5.32-.47-4.79,4.76-1.34,3.83,1.11-.3,1.85-1.36,2-2.93,2.47.83,0,4.9,1.55,6.67a2.69,2.69,0,0,0,2.07.72h0a.37.37,0,1,0,0-.74ZM46.86,1.94a1.15,1.15,0,0,1,.81-.3h.2a.6.6,0,0,1,.6.49c.2.82-.6,2.63-2.57,4.12,0-2.28.32-3.73,1-4.32ZM39.6,10.4a.83.83,0,0,1,.07-.78C40.18,8.76,42,8,44.26,7.53a1.72,1.72,0,0,0,.39,0,11.81,11.81,0,0,1-2.06,2.12c-.41.29-.83.56-1.27.81a2.36,2.36,0,0,1-1.19.27.57.57,0,0,1-.53-.37Zm11.62,8.75A42.6,42.6,0,0,0,43,34.52a3.2,3.2,0,0,1-3.27,0,41.75,41.75,0,0,0-1.4-4.08c-.43-1.05-.9-2.09-1.4-3.08a45.23,45.23,0,0,0-5.37-8.13c1.82-6.35,10.1-6.16,13.7-11.12-.26,1-1.34,2-1.67,3.11a3.61,3.61,0,0,0,1,3.18.38.38,0,0,0,.53,0,.38.38,0,0,0,0-.51,2.9,2.9,0,0,1-.84-2.45c.32-1.11,1.63-2.17,1.76-3.53,1.7,1.45,2.4,1.85,3.42,2.66,2,1.56,2.16,6.18,1.74,8.6ZM67.41,36.58c-2.19.59-2.47-2.17.43-2.37a6.37,6.37,0,0,1,1.07,0c-.12,1-.53,2.11-1.5,2.37Z"/></svg>