<svg id="Layer_1" data-name="Layer 1" xmlns="http://www.w3.org/2000/svg" width="0.39in" height="0.4in" viewBox="0 0 27.8 29.07"><defs><style>.cls-1{fill:#002a3f;}</style></defs><path class="cls-1" d="M24.61,3.9a.77.77,0,0,0-.76-.67H23.3V1.34a.76.76,0,0,0-.76-.76H18.49a.76.76,0,0,0-.76.76V3.23h-.88a.76.76,0,0,0-.76.76V9.35h-4.4V4a.76.76,0,0,0-.76-.76h-.88V1.34A.76.76,0,0,0,9.29.58h-4a.76.76,0,0,0-.76.76V3.23H3.93a.76.76,0,0,0-.75.67L.55,25.47v2.26a.76.76,0,0,0,.76.75h9.62a.76.76,0,0,0,.76-.75V20.45h4.4v7.28a.76.76,0,0,0,.76.75h9.63a.76.76,0,0,0,.76-.75V25.55Zm-5.36-.67V2.1h2.53V3.23ZM25.62,24.8h-8v-20h5.58Zm.11,1.51V27H17.61v-.66ZM16.1,10.87v8.07H11.7V10.87ZM10.18,26.31V27H2.06v-.66ZM6,3.23V2.1H8.54V3.23Zm4.18,1.52V24.8h-8l2.45-20Z"/></svg>