<svg id="Layer_1" data-name="Layer 1" xmlns="http://www.w3.org/2000/svg" width="0.67in" height="0.67in" viewBox="0 0 48.45 48.45"><defs><style>.cls-1,.cls-2{fill:#fff;}.cls-1{fill-rule:evenodd;}</style></defs><g id="Group_442" data-name="Group 442"><path id="Path_298" data-name="Path 298" class="cls-1" d="M21,36.9h5.1V24.11h3.56l.37-4.28H26.13V17.39c0-1,.21-1.4,1.18-1.4h2.75V11.55H26.53c-3.81,0-5.5,1.65-5.5,4.87v3.41H18.38v4.34H21Z"/><g id="Group_439" data-name="Group 439"><g id="Group_23" data-name="Group 23"><g id="Group_22" data-name="Group 22"><path id="Path_4" data-name="Path 4" class="cls-2" d="M24.22,47.55A23.33,23.33,0,1,1,47.55,24.22,23.32,23.32,0,0,1,24.22,47.55ZM24.22,2A22.26,22.26,0,1,0,46.48,24.22h0A22.28,22.28,0,0,0,24.22,2Z"/></g></g></g></g></svg>