<svg id="Layer_1" data-name="Layer 1" xmlns="http://www.w3.org/2000/svg" width="0.68in" height="0.68in" viewBox="0 0 48.77 48.77"><defs><style>.cls-1,.cls-2{fill:#fff;}.cls-1{fill-rule:evenodd;}</style></defs><g id="Group_443" data-name="Group 443"><path id="Path_299" data-name="Path 299" class="cls-1" d="M34.09,29.15a5,5,0,0,1-5,4.93H19.64a4.93,4.93,0,0,1-4.94-4.92h0V19.62a4.93,4.93,0,0,1,4.92-4.93h9.51a5,5,0,0,1,5,4.93Zm2.23-9.53a7.2,7.2,0,0,0-7.2-7.2H19.64a7.2,7.2,0,0,0-7.2,7.2h0v9.53a7.2,7.2,0,0,0,7.2,7.2h9.49a7.21,7.21,0,0,0,7.2-7.2h0ZM24.41,28.31a3.74,3.74,0,0,1-3.75-3.74h0a3.75,3.75,0,0,1,3.72-3.79h0a3.77,3.77,0,0,1,3.79,3.74v0a3.75,3.75,0,0,1-3.76,3.75Zm0-9.68a5.92,5.92,0,1,0,5.93,5.93A5.93,5.93,0,0,0,24.41,18.63Zm6.27-1.8a1.42,1.42,0,0,0-1.43,1.4,1.43,1.43,0,0,0,1.42,1.43h0a1.4,1.4,0,0,0,1.4-1.4v0a1.39,1.39,0,0,0-1.38-1.4Z"/><g id="Group_440" data-name="Group 440"><g id="Group_23-2" data-name="Group 23-2"><g id="Group_22-2" data-name="Group 22-2"><path id="Path_4-2" data-name="Path 4-2" class="cls-2" d="M24.38,47.71A23.33,23.33,0,1,1,47.71,24.38,23.32,23.32,0,0,1,24.38,47.71Zm0-45.59A22.26,22.26,0,1,0,46.64,24.38h0A22.29,22.29,0,0,0,24.38,2.12Z"/></g></g></g></g></svg>