<svg id="Layer_1" data-name="Layer 1" xmlns="http://www.w3.org/2000/svg" width="3.7in" height="0.53in" viewBox="0 0 266.69 38.38"><defs><style>.cls-1{fill:#082232;}</style></defs><path class="cls-1" d="M2.2,2V15.12H264.73V2ZM263.55,8.32H210.46V3.13h53.09ZM78.12,3.13H144V8.36H78.12Zm-40.88,0,0,5.32H3.37V3.13ZM3.37,14V9.62H37.15v4.27h1.17l.09-10.76H77V13.89h1.17V9.53H144V14Zm141.79,0V3.13h64.13V14Zm65.3,0V9.49h53.09V14Z"/><path class="cls-1" d="M38.89,25.53a4.53,4.53,0,0,1,1.19.12,4.41,4.41,0,0,1,1,.38,4.33,4.33,0,0,1,.82.58,5.14,5.14,0,0,1,.65.75,6.24,6.24,0,0,1,.49.87,8.22,8.22,0,0,1,.33.95,6.91,6.91,0,0,1,.19,1,6.55,6.55,0,0,1,.07,1,8,8,0,0,1-.06,1,6.15,6.15,0,0,1-.19,1,5.55,5.55,0,0,1-.32.92,5.41,5.41,0,0,1-.47.85,4.28,4.28,0,0,1-.63.72,3.93,3.93,0,0,1-.81.57,4.33,4.33,0,0,1-1,.38,4.92,4.92,0,0,1-1.19.14,4.76,4.76,0,0,1-1.23-.12,3.89,3.89,0,0,1-1-.36,3.58,3.58,0,0,1-.8-.56,4.71,4.71,0,0,1-.62-.72,5.11,5.11,0,0,1-.45-.83,5.63,5.63,0,0,1-.31-.9,7.15,7.15,0,0,1-.19-.92c0-.32-.07-.62-.09-.91a8.06,8.06,0,0,1,0-1,6.74,6.74,0,0,1,.17-1,6.83,6.83,0,0,1,.31-1,5.81,5.81,0,0,1,.47-.89,5.31,5.31,0,0,1,.64-.78,3.89,3.89,0,0,1,.82-.61,4.38,4.38,0,0,1,1-.41A4.59,4.59,0,0,1,38.89,25.53Zm.08.67a1.51,1.51,0,0,0-.65.13,1.93,1.93,0,0,0-.52.38,2.39,2.39,0,0,0-.39.57,3.67,3.67,0,0,0-.29.7,6.37,6.37,0,0,0-.21.78c0,.27-.09.55-.12.82s0,.54-.06.8,0,.5,0,.73,0,.46,0,.72,0,.52.06.79.07.53.12.8a5.77,5.77,0,0,0,.2.77,4,4,0,0,0,.29.7,2.54,2.54,0,0,0,.39.56,2,2,0,0,0,.53.38A1.53,1.53,0,0,0,39,36a1.45,1.45,0,0,0,.68-.12,1.64,1.64,0,0,0,.53-.37,2,2,0,0,0,.38-.55,3.54,3.54,0,0,0,.27-.69,6.33,6.33,0,0,0,.17-.78,7.46,7.46,0,0,0,.1-.81c0-.27,0-.53,0-.79s0-.49,0-.71,0-.47,0-.73,0-.53,0-.8a7.83,7.83,0,0,0-.1-.83,6.5,6.5,0,0,0-.17-.79,3.73,3.73,0,0,0-.27-.71,2.1,2.1,0,0,0-.38-.57,1.66,1.66,0,0,0-.53-.38A1.59,1.59,0,0,0,39,26.2Z"/><path class="cls-1" d="M83.14,26,83,27.44H79.4l-.54,3.36a6.28,6.28,0,0,1,1.63.35,3.33,3.33,0,0,1,1.1.64,2.51,2.51,0,0,1,.64.92,3.51,3.51,0,0,1,.24,1.15,2.43,2.43,0,0,1,0,.6,2.84,2.84,0,0,1-.51,1.12,2.85,2.85,0,0,1-.43.49,3.2,3.2,0,0,1-.54.41,3.26,3.26,0,0,1-.62.31,5.15,5.15,0,0,1-.7.2,3.78,3.78,0,0,1-.76,0,4.53,4.53,0,0,1-1.66-.35,6.13,6.13,0,0,1-1.53-.94V35a5.84,5.84,0,0,0,.56.42,5.27,5.27,0,0,0,.59.37,3.45,3.45,0,0,0,.63.25,2.37,2.37,0,0,0,.65.09,1.75,1.75,0,0,0,.48-.06,1.38,1.38,0,0,0,.39-.18,1.93,1.93,0,0,0,.3-.27,2.08,2.08,0,0,0,.24-.34,2.32,2.32,0,0,0,.18-.39l.12-.41c0-.14,0-.28.07-.42s0-.28,0-.4a2.75,2.75,0,0,0,0-.41,2.71,2.71,0,0,0-.09-.41,2.3,2.3,0,0,0-.17-.39,1.78,1.78,0,0,0-.25-.36,2.08,2.08,0,0,0-.34-.32,2.65,2.65,0,0,0-.44-.25,2.54,2.54,0,0,0-.53-.17,3.11,3.11,0,0,0-.64-.08,1.15,1.15,0,0,0-.26,0l-.27.05-.28,0-.28.05L77.18,26Z"/><path class="cls-1" d="M91.43,25.89a4.93,4.93,0,0,1,1.19.13,3.83,3.83,0,0,1,1,.37,3.72,3.72,0,0,1,.82.59,4.27,4.27,0,0,1,.65.75,5.27,5.27,0,0,1,.49.87,5.92,5.92,0,0,1,.33.95,7.08,7.08,0,0,1,.26,2,7.73,7.73,0,0,1-.06,1,8.1,8.1,0,0,1-.18,1,7.77,7.77,0,0,1-.33.92,5.31,5.31,0,0,1-.47.84,4.28,4.28,0,0,1-.63.72,4.17,4.17,0,0,1-1.8,1,4.92,4.92,0,0,1-1.19.14,4.76,4.76,0,0,1-1.23-.12,3.89,3.89,0,0,1-1-.36,3.28,3.28,0,0,1-.8-.56,4.16,4.16,0,0,1-.61-.72,4.77,4.77,0,0,1-.46-.83,6.82,6.82,0,0,1-.31-.9,9.37,9.37,0,0,1-.19-.92c0-.31-.07-.62-.08-.91a6.43,6.43,0,0,1,0-1,6.74,6.74,0,0,1,.17-1,6.83,6.83,0,0,1,.31-1,5.1,5.1,0,0,1,.48-.89A4.15,4.15,0,0,1,90.24,26,5.45,5.45,0,0,1,91.43,25.89Zm.08.67a1.53,1.53,0,0,0-1.16.52,2.28,2.28,0,0,0-.4.56,4.89,4.89,0,0,0-.29.7,6.36,6.36,0,0,0-.2.78,8.19,8.19,0,0,0-.13.82c0,.27,0,.54-.06.8s0,.5,0,.73,0,.46,0,.72,0,.52.06.79.07.54.12.8a6.35,6.35,0,0,0,.19.78,5.28,5.28,0,0,0,.29.69,2.28,2.28,0,0,0,.4.56,1.79,1.79,0,0,0,.52.38,1.59,1.59,0,0,0,.66.14,1.52,1.52,0,0,0,.69-.12,1.86,1.86,0,0,0,.52-.36,2.32,2.32,0,0,0,.39-.56,4.3,4.3,0,0,0,.26-.69,6.34,6.34,0,0,0,.18-.78c0-.27.07-.54.09-.8s0-.54,0-.79,0-.5,0-.72,0-.47,0-.73,0-.53,0-.8,0-.55-.09-.83a6.5,6.5,0,0,0-.18-.79,5,5,0,0,0-.26-.71,2.39,2.39,0,0,0-.39-.57,1.74,1.74,0,0,0-.52-.38A1.67,1.67,0,0,0,91.51,26.56Z"/><path class="cls-1" d="M131.63,25.53v9.65a1.1,1.1,0,0,0,.1.49A1.38,1.38,0,0,0,132,36a1.23,1.23,0,0,0,.37.21,1.12,1.12,0,0,0,.4.07H133v.2h-5v-.21h.21a1.34,1.34,0,0,0,.4-.06.94.94,0,0,0,.35-.2,1.2,1.2,0,0,0,.25-.38,1.61,1.61,0,0,0,.09-.58V29.47a1.85,1.85,0,0,0,0-.23,1,1,0,0,0,0-.25.43.43,0,0,0-.13-.19.29.29,0,0,0-.24-.08,1,1,0,0,0-.24,0,1.13,1.13,0,0,0-.24.08,1.19,1.19,0,0,0-.22.12.86.86,0,0,0-.18.14l-.17-.21,3.57-3.35Z"/><path class="cls-1" d="M141.13,25.53a4.53,4.53,0,0,1,1.19.12,4.41,4.41,0,0,1,1,.38,4,4,0,0,1,.82.58,5.14,5.14,0,0,1,.65.75,5.3,5.3,0,0,1,.48.87,6.74,6.74,0,0,1,.34.95,6.91,6.91,0,0,1,.19,1,6.55,6.55,0,0,1,.07,1,8,8,0,0,1-.06,1,6.15,6.15,0,0,1-.19,1,5.55,5.55,0,0,1-.32.92,5.41,5.41,0,0,1-.47.85,4.28,4.28,0,0,1-.63.72,3.93,3.93,0,0,1-.81.57,4.33,4.33,0,0,1-1,.38,4.92,4.92,0,0,1-1.19.14,4.76,4.76,0,0,1-1.23-.12,3.89,3.89,0,0,1-1-.36,3.58,3.58,0,0,1-.8-.56,4.71,4.71,0,0,1-.62-.72,6,6,0,0,1-.45-.83,6.82,6.82,0,0,1-.31-.9,7.15,7.15,0,0,1-.19-.92c0-.32-.07-.62-.09-.91a8.06,8.06,0,0,1,0-1,6.74,6.74,0,0,1,.17-1,6.83,6.83,0,0,1,.31-1,5.81,5.81,0,0,1,.47-.89,5.31,5.31,0,0,1,.64-.78,3.89,3.89,0,0,1,.82-.61,4.28,4.28,0,0,1,1-.41A4.46,4.46,0,0,1,141.13,25.53Zm.08.67a1.51,1.51,0,0,0-.65.13,2.1,2.1,0,0,0-.52.38,2.39,2.39,0,0,0-.39.57,4.45,4.45,0,0,0-.29.7,6.36,6.36,0,0,0-.2.78,7.76,7.76,0,0,0-.13.82c0,.27-.05.54-.06.8s0,.5,0,.73,0,.46,0,.72,0,.52.07.79a7.67,7.67,0,0,0,.11.8,7.84,7.84,0,0,0,.2.77,4.89,4.89,0,0,0,.29.7,2.54,2.54,0,0,0,.39.56,2,2,0,0,0,.53.38,1.56,1.56,0,0,0,.66.14,1.52,1.52,0,0,0,.69-.12,1.71,1.71,0,0,0,.52-.37,2.26,2.26,0,0,0,.39-.55,4.3,4.3,0,0,0,.26-.69q.1-.37.18-.78t.09-.81c0-.27,0-.53,0-.79s0-.49,0-.71,0-.47,0-.73,0-.53,0-.8-.05-.55-.09-.83-.11-.54-.18-.79a4.55,4.55,0,0,0-.26-.71,2.39,2.39,0,0,0-.39-.57,1.74,1.74,0,0,0-.52-.38A1.67,1.67,0,0,0,141.21,26.2Z"/><path class="cls-1" d="M154.4,25.53a4.53,4.53,0,0,1,1.19.12,4.41,4.41,0,0,1,1,.38,4,4,0,0,1,.82.58,5.14,5.14,0,0,1,.65.75,6.24,6.24,0,0,1,.49.87,8.22,8.22,0,0,1,.33.95,6.91,6.91,0,0,1,.19,1,6.55,6.55,0,0,1,.07,1,8,8,0,0,1-.06,1,6.15,6.15,0,0,1-.19,1,5.55,5.55,0,0,1-.32.92,5.41,5.41,0,0,1-.47.85,4.28,4.28,0,0,1-.63.72,3.93,3.93,0,0,1-.81.57,4.33,4.33,0,0,1-1,.38,4.92,4.92,0,0,1-1.19.14,4.76,4.76,0,0,1-1.23-.12,3.89,3.89,0,0,1-1-.36,3.58,3.58,0,0,1-.8-.56,4.71,4.71,0,0,1-.62-.72,6,6,0,0,1-.45-.83,5.63,5.63,0,0,1-.31-.9,7.15,7.15,0,0,1-.19-.92c0-.32-.07-.62-.09-.91a8.06,8.06,0,0,1,0-1,6.74,6.74,0,0,1,.17-1,6.83,6.83,0,0,1,.31-1,5.81,5.81,0,0,1,.47-.89,5.31,5.31,0,0,1,.64-.78,3.89,3.89,0,0,1,.82-.61,4.28,4.28,0,0,1,1-.41A4.46,4.46,0,0,1,154.4,25.53Zm.08.67a1.51,1.51,0,0,0-.65.13,2.1,2.1,0,0,0-.52.38,2.39,2.39,0,0,0-.39.57,4.45,4.45,0,0,0-.29.7,6.36,6.36,0,0,0-.2.78,7.76,7.76,0,0,0-.13.82c0,.27-.05.54-.06.8s0,.5,0,.73,0,.46,0,.72,0,.52.06.79.07.53.12.8a7.84,7.84,0,0,0,.2.77,4.89,4.89,0,0,0,.29.7,2.54,2.54,0,0,0,.39.56,2,2,0,0,0,.53.38,1.81,1.81,0,0,0,1.35,0,1.71,1.71,0,0,0,.52-.37,2.26,2.26,0,0,0,.39-.55,4.3,4.3,0,0,0,.26-.69,6.33,6.33,0,0,0,.17-.78,7.46,7.46,0,0,0,.1-.81c0-.27,0-.53,0-.79s0-.49,0-.71,0-.47,0-.73,0-.53,0-.8a7.83,7.83,0,0,0-.1-.83,6.5,6.5,0,0,0-.17-.79,4.55,4.55,0,0,0-.26-.71,2.39,2.39,0,0,0-.39-.57,1.74,1.74,0,0,0-.52-.38A1.67,1.67,0,0,0,154.48,26.2Z"/><path class="cls-1" d="M194.7,25.53a3.27,3.27,0,0,1,.54,0,3.58,3.58,0,0,1,.54.14,3.43,3.43,0,0,1,.52.23,3.46,3.46,0,0,1,.47.31,3.18,3.18,0,0,1,.41.41,2.37,2.37,0,0,1,.32.5,2.25,2.25,0,0,1,.22.58,2.48,2.48,0,0,1,.09.68,3.82,3.82,0,0,1-.11,1,5.44,5.44,0,0,1-.31.94,8,8,0,0,1-.49.9c-.19.29-.4.57-.62.85s-.45.55-.69.81l-.73.74c-.24.23-.48.46-.72.67l-.65.59h3.9a1.06,1.06,0,0,0,.55-.15,2.44,2.44,0,0,0,.46-.4,3,3,0,0,0,.37-.54,6.58,6.58,0,0,0,.3-.59h.21l-.51,3.32h-7.92l.79-.8c.27-.27.54-.54.8-.82s.52-.56.77-.85.49-.57.71-.87.43-.59.63-.89a6.84,6.84,0,0,0,.5-.92,5.58,5.58,0,0,0,.36-.93,5.35,5.35,0,0,0,.18-1,1.72,1.72,0,0,0,0-.31,2.58,2.58,0,0,0-.09-.35,2.83,2.83,0,0,0-.16-.36,2.64,2.64,0,0,0-.23-.35,2.7,2.7,0,0,0-.28-.31,2.8,2.8,0,0,0-.35-.25,1.76,1.76,0,0,0-.4-.16,1.64,1.64,0,0,0-.45-.05,2.32,2.32,0,0,0-.71.15,2.89,2.89,0,0,0-.67.36,2.71,2.71,0,0,0-.55.52,2,2,0,0,0-.37.65h-.25a4.38,4.38,0,0,1,.16-.86,4,4,0,0,1,.29-.73,3.09,3.09,0,0,1,.39-.6,3.63,3.63,0,0,1,.48-.48,3.17,3.17,0,0,1,.54-.36,3.33,3.33,0,0,1,.58-.26,4.34,4.34,0,0,1,.6-.14A3,3,0,0,1,194.7,25.53Z"/><path class="cls-1" d="M207.5,25.53a4.49,4.49,0,0,1,1.19.12,4.24,4.24,0,0,1,1,.38,3.78,3.78,0,0,1,.82.58,4.6,4.6,0,0,1,.65.75,6.24,6.24,0,0,1,.49.87,5.63,5.63,0,0,1,.33.95,7,7,0,0,1,.2,1,8.18,8.18,0,0,1,.06,1,8,8,0,0,1-.06,1,7.58,7.58,0,0,1-.18,1,6.65,6.65,0,0,1-.32.92,5.46,5.46,0,0,1-.48.85,4.28,4.28,0,0,1-.63.72,4.14,4.14,0,0,1-.8.57,4.24,4.24,0,0,1-1,.38,4.86,4.86,0,0,1-1.19.14,4.8,4.8,0,0,1-1.23-.12,3.82,3.82,0,0,1-1-.36,3.64,3.64,0,0,1-.81-.56,4.16,4.16,0,0,1-.61-.72,5.16,5.16,0,0,1-.46-.83,6.82,6.82,0,0,1-.31-.9,9.37,9.37,0,0,1-.19-.92c0-.32-.07-.62-.08-.91a6.44,6.44,0,0,1,0-1,5.63,5.63,0,0,1,.16-1,6.88,6.88,0,0,1,.32-1,5,5,0,0,1,.47-.89,4.68,4.68,0,0,1,.63-.78,4.48,4.48,0,0,1,.82-.61,4.28,4.28,0,0,1,1-.41A4.46,4.46,0,0,1,207.5,25.53Zm.08.67a1.54,1.54,0,0,0-.65.13,1.89,1.89,0,0,0-.51.38,2.42,2.42,0,0,0-.4.57,4.45,4.45,0,0,0-.29.7,6.36,6.36,0,0,0-.2.78c-.05.27-.1.55-.13.82s-.05.54-.06.8,0,.5,0,.73,0,.46,0,.72,0,.52.06.79.07.53.12.8a5.78,5.78,0,0,0,.19.77,4.89,4.89,0,0,0,.29.7,2.28,2.28,0,0,0,.4.56,1.79,1.79,0,0,0,.52.38,1.59,1.59,0,0,0,.66.14,1.52,1.52,0,0,0,.69-.12,1.59,1.59,0,0,0,.52-.37,2.26,2.26,0,0,0,.39-.55,3.54,3.54,0,0,0,.27-.69c.07-.25.12-.51.17-.78s.07-.54.1-.81,0-.53,0-.79,0-.49,0-.71,0-.47,0-.73,0-.53,0-.8-.06-.55-.1-.83-.1-.54-.17-.79a3.73,3.73,0,0,0-.27-.71,2.39,2.39,0,0,0-.39-.57,1.62,1.62,0,0,0-.52-.38A1.67,1.67,0,0,0,207.58,26.2Z"/><path class="cls-1" d="M220.77,25.53a4.49,4.49,0,0,1,1.19.12,4.24,4.24,0,0,1,1,.38,3.78,3.78,0,0,1,.82.58,5.14,5.14,0,0,1,.65.75,6.24,6.24,0,0,1,.49.87,5.63,5.63,0,0,1,.33.95,7,7,0,0,1,.2,1,8.18,8.18,0,0,1,.06,1,8,8,0,0,1-.06,1,7.58,7.58,0,0,1-.18,1,5.58,5.58,0,0,1-.33.92,4.7,4.7,0,0,1-.47.85,4.28,4.28,0,0,1-.63.72,3.93,3.93,0,0,1-.81.57,4,4,0,0,1-1,.38,4.92,4.92,0,0,1-1.19.14,4.76,4.76,0,0,1-1.23-.12,4,4,0,0,1-1-.36,3.82,3.82,0,0,1-.8-.56,4.16,4.16,0,0,1-.61-.72,5.16,5.16,0,0,1-.46-.83,6.82,6.82,0,0,1-.31-.9,9.37,9.37,0,0,1-.19-.92c0-.32-.07-.62-.08-.91a6.44,6.44,0,0,1,0-1,5.63,5.63,0,0,1,.16-1,6.83,6.83,0,0,1,.31-1,5.1,5.1,0,0,1,.48-.89,4.68,4.68,0,0,1,.63-.78,4.48,4.48,0,0,1,.82-.61,4.28,4.28,0,0,1,1-.41A4.46,4.46,0,0,1,220.77,25.53Zm.08.67a1.54,1.54,0,0,0-.65.13,1.89,1.89,0,0,0-.51.38,2.42,2.42,0,0,0-.4.57,4.45,4.45,0,0,0-.29.7,6.36,6.36,0,0,0-.2.78c-.05.27-.1.55-.13.82s0,.54-.06.8,0,.5,0,.73,0,.46,0,.72,0,.52.06.79.07.53.12.8a5.78,5.78,0,0,0,.19.77,4.89,4.89,0,0,0,.29.7,2.28,2.28,0,0,0,.4.56,1.79,1.79,0,0,0,.52.38,1.59,1.59,0,0,0,.66.14,1.52,1.52,0,0,0,.69-.12,1.59,1.59,0,0,0,.52-.37,2.26,2.26,0,0,0,.39-.55,4.31,4.31,0,0,0,.27-.69c.07-.25.12-.51.17-.78s.07-.54.09-.81,0-.53.05-.79,0-.49,0-.71,0-.47,0-.73,0-.53-.05-.8,0-.55-.09-.83-.1-.54-.17-.79a4.56,4.56,0,0,0-.27-.71,2.39,2.39,0,0,0-.39-.57,1.62,1.62,0,0,0-.52-.38A1.67,1.67,0,0,0,220.85,26.2Z"/></svg>