<svg id="Layer_1" data-name="Layer 1" xmlns="http://www.w3.org/2000/svg" width="0.33in" height="0.52in" viewBox="0 0 23.77 37.33"><defs><style>.cls-1{fill:#002a3f;}</style></defs><path class="cls-1" d="M18.34.65H5.43A4.82,4.82,0,0,0,.61,5.47V31.86a4.83,4.83,0,0,0,4.82,4.82H18.34a4.83,4.83,0,0,0,4.82-4.82V5.47A4.83,4.83,0,0,0,18.34.65ZM21.8,31.86a3.47,3.47,0,0,1-3.46,3.45H5.43A3.46,3.46,0,0,1,2,31.86V5.47A3.46,3.46,0,0,1,5.43,2H18.34a3.46,3.46,0,0,1,3.45,3.45Z"/><path class="cls-1" d="M12.19,15h0A5.13,5.13,0,1,0,7.06,9.87,5.13,5.13,0,0,0,12.19,15Zm0-8.94A3.8,3.8,0,0,1,16,9.86a3.79,3.79,0,0,1-3.8,3.8,3.8,3.8,0,1,1,0-7.6Z"/><path class="cls-1" d="M12.19,12.57a2.7,2.7,0,1,0-2.7-2.7A2.7,2.7,0,0,0,12.19,12.57Zm-1.53-2.7a1.53,1.53,0,0,1,3.06,0,1.52,1.52,0,0,1-1.53,1.52h0A1.53,1.53,0,0,1,10.66,9.87Z"/><path class="cls-1" d="M12.19,16.77h0a7.91,7.91,0,1,0,7.91,7.91A7.92,7.92,0,0,0,12.19,16.77Zm0,1.33a6.58,6.58,0,1,1,0,13.16H12a6.58,6.58,0,0,1,.22-13.16Z"/><path class="cls-1" d="M12.19,29.81a5.13,5.13,0,1,0,0-10.26h0a5.13,5.13,0,0,0,0,10.26ZM8.3,24.68a3.89,3.89,0,0,1,3.89-3.89h0A3.89,3.89,0,1,1,8.3,24.68Z"/></svg>