<svg id="Layer_1" data-name="Layer 1" xmlns="http://www.w3.org/2000/svg" width="0.76in" height="0.8in" viewBox="0 0 55.03 57.65"><defs><style>.cls-1{fill:#002a3f;}</style></defs><circle id="Ellipse_11" data-name="Ellipse 11" class="cls-1" cx="27.51" cy="28.82" r="10.57"/><g id="Group_372" data-name="Group 372"><path id="Path_263" data-name="Path 263" class="cls-1" d="M27.67.83s.19.88.41,2.21c.11.66.24,1.44.36,2.27s.23,1.72.34,2.6c0,.44.13.89.22,1.32a9.14,9.14,0,0,1,.16,1.28,6,6,0,0,1-.11,1.2,9.85,9.85,0,0,1-.27,1.07,7.08,7.08,0,0,1-.34.91c-.11.24-.23.47-.36.7a4,4,0,0,1-.29.45l-.12.16h-.32l-.12-.16c-.07-.1-.17-.26-.28-.45a5.15,5.15,0,0,1-.36-.7,7.13,7.13,0,0,1-.35-.91A7.94,7.94,0,0,1,26,11.71a5.36,5.36,0,0,1-.11-1.2A7.86,7.86,0,0,1,26,9.23c.09-.43.16-.88.22-1.32.11-.89.2-1.77.33-2.6s.25-1.61.36-2.27c.23-1.33.41-2.21.41-2.21Z"/><path id="Path_264" data-name="Path 264" class="cls-1" d="M27.36,56.82s-.19-.88-.42-2.21c-.11-.67-.24-1.44-.36-2.27s-.22-1.72-.33-2.6c-.05-.44-.13-.89-.22-1.32a7.86,7.86,0,0,1-.16-1.28,5.36,5.36,0,0,1,.11-1.2,7.94,7.94,0,0,1,.26-1.07,7.13,7.13,0,0,1,.35-.91,5.15,5.15,0,0,1,.36-.7,3.46,3.46,0,0,1,.29-.45l.12-.16h.31l.12.16a3.46,3.46,0,0,1,.29.45c.13.23.25.46.36.7a7.08,7.08,0,0,1,.34.91,9.85,9.85,0,0,1,.27,1.07,5.36,5.36,0,0,1,.11,1.2A7.86,7.86,0,0,1,29,48.42c-.09.43-.17.88-.22,1.32-.11.89-.2,1.77-.34,2.6s-.24,1.6-.35,2.27c-.23,1.33-.42,2.21-.42,2.21Z"/></g><g id="Group_373" data-name="Group 373"><path id="Path_265" data-name="Path 265" class="cls-1" d="M11.18,6.08s.68.61,1.64,1.55c.48.47,1,1,1.62,1.62s1.19,1.26,1.8,1.91c.31.33.63.64,1,.94a8.67,8.67,0,0,1,.88.94,5.72,5.72,0,0,1,.62,1,9,9,0,0,1,.41,1c.1.31.19.62.26.94s.09.51.12.77l0,.53v.2l-.26.19-.19-.06a4.29,4.29,0,0,1-.5-.19,6.61,6.61,0,0,1-.7-.36,8.35,8.35,0,0,1-1.66-1.24,5.66,5.66,0,0,1-.79-.9,8.27,8.27,0,0,1-.62-1.13c-.19-.4-.38-.81-.6-1.2-.43-.78-.88-1.55-1.26-2.3l-1-2c-.6-1.21-1-2-1-2Z"/><path id="Path_266" data-name="Path 266" class="cls-1" d="M43.84,51.57S43.17,51,42.21,50c-.48-.47-1-1-1.63-1.63s-1.19-1.25-1.8-1.9c-.3-.33-.62-.64-1-.94a7.78,7.78,0,0,1-.88-.94,6.08,6.08,0,0,1-.62-1,7.49,7.49,0,0,1-.41-1,7.7,7.7,0,0,1-.26-.94c0-.25-.09-.51-.12-.77a4.84,4.84,0,0,1,0-.53v-.2l.26-.19L36,40a5.21,5.21,0,0,1,.5.2,6.53,6.53,0,0,1,.7.35,8.67,8.67,0,0,1,.81.53,9.55,9.55,0,0,1,.84.71,6.21,6.21,0,0,1,.8.9,9.52,9.52,0,0,1,.62,1.13q.27.62.6,1.2c.43.79.87,1.56,1.25,2.3s.75,1.45,1.05,2.05c.6,1.21,1,2,1,2Z"/></g><g id="Group_374" data-name="Group 374"><path id="Path_267" data-name="Path 267" class="cls-1" d="M.93,20s.9.1,2.24.29c.66.1,1.44.22,2.27.37s1.7.31,2.57.48c.44.08.89.15,1.33.2a9.17,9.17,0,0,1,1.27.24,5.64,5.64,0,0,1,1.1.48,9.14,9.14,0,0,1,.94.58,8.69,8.69,0,0,1,.75.61,7.27,7.27,0,0,1,.56.55c.11.14.23.27.33.42l.12.16-.1.3-.19.06a4.42,4.42,0,0,1-.52.14,6.51,6.51,0,0,1-.77.13,7.87,7.87,0,0,1-1,0,8,8,0,0,1-1.1-.08,5.21,5.21,0,0,1-1.17-.26,7.83,7.83,0,0,1-1.17-.55c-.39-.22-.78-.43-1.19-.62-.81-.37-1.62-.74-2.37-1.12s-1.45-.73-2.05-1c-1.19-.63-2-1.08-2-1.08Z"/><path id="Path_268" data-name="Path 268" class="cls-1" d="M54.09,37.63s-.9-.1-2.23-.29c-.67-.1-1.44-.22-2.27-.37s-1.7-.31-2.58-.48c-.43-.08-.88-.15-1.32-.2a9.17,9.17,0,0,1-1.27-.24,5.64,5.64,0,0,1-1.1-.48,8.18,8.18,0,0,1-.94-.58,7.39,7.39,0,0,1-.75-.61,4.94,4.94,0,0,1-.56-.56c-.12-.13-.23-.27-.34-.41l-.11-.16.1-.3.19-.07a4.77,4.77,0,0,1,.51-.13,7,7,0,0,1,.78-.13,7.78,7.78,0,0,1,1,0,10.17,10.17,0,0,1,1.1.08,5.84,5.84,0,0,1,1.17.27,7.77,7.77,0,0,1,1.17.55c.39.22.78.42,1.19.61.8.38,1.62.74,2.37,1.13l2,1c1.19.62,2,1.07,2,1.07Z"/></g><g id="Group_375" data-name="Group 375"><path id="Path_269" data-name="Path 269" class="cls-1" d="M.83,37.32s.79-.45,2-1.07c.6-.31,1.3-.68,2.05-1s1.56-.75,2.37-1.13c.41-.19.8-.4,1.19-.61a7,7,0,0,1,1.17-.55,5.84,5.84,0,0,1,1.17-.27,10.17,10.17,0,0,1,1.1-.08,7.88,7.88,0,0,1,1,0,6.51,6.51,0,0,1,.77.13,4.39,4.39,0,0,1,.52.13l.19.07.1.3-.12.16a4.23,4.23,0,0,1-.33.41,5.92,5.92,0,0,1-.56.56,8.69,8.69,0,0,1-.75.61,9.14,9.14,0,0,1-.94.58,5.64,5.64,0,0,1-1.1.48,9.17,9.17,0,0,1-1.27.24c-.44.05-.89.12-1.32.2-.88.17-1.75.35-2.58.48l-2.27.37c-1.33.2-2.23.29-2.23.29Z"/><path id="Path_270" data-name="Path 270" class="cls-1" d="M54.19,20.32s-.78.45-2,1.08c-.6.31-1.29.67-2,1s-1.57.74-2.38,1.12c-.4.19-.8.4-1.18.62a8.88,8.88,0,0,1-1.17.55,5.34,5.34,0,0,1-1.17.26,8.26,8.26,0,0,1-1.1.08,7.79,7.79,0,0,1-1,0,7,7,0,0,1-.78-.13,4.84,4.84,0,0,1-.51-.14.94.94,0,0,1-.19-.06l-.1-.3.11-.16c.08-.11.19-.25.34-.42a7.14,7.14,0,0,1,.55-.55,8.82,8.82,0,0,1,.76-.61,7,7,0,0,1,.94-.58,5.64,5.64,0,0,1,1.1-.48,6.78,6.78,0,0,1,1.27-.24c.44-.05.88-.12,1.32-.2.88-.17,1.75-.36,2.58-.49l2.27-.36c1.33-.2,2.23-.29,2.23-.29Z"/></g><g id="Group_376" data-name="Group 376"><path id="Path_271" data-name="Path 271" class="cls-1" d="M10.93,51.38s.37-.82,1-2c.3-.6.66-1.3,1-2.05s.83-1.52,1.26-2.3q.32-.59.6-1.2a7.32,7.32,0,0,1,.62-1.13,5.66,5.66,0,0,1,.79-.9,9.68,9.68,0,0,1,.85-.71,8.67,8.67,0,0,1,.81-.53,5.71,5.71,0,0,1,.7-.35,3.07,3.07,0,0,1,.5-.2l.19-.06.25.18a1.07,1.07,0,0,1,0,.2,4.89,4.89,0,0,1,0,.54,4.94,4.94,0,0,1-.12.77,7.66,7.66,0,0,1-.25.94,9.1,9.1,0,0,1-.42,1,5.45,5.45,0,0,1-.61,1,8.67,8.67,0,0,1-.88.94c-.33.3-.65.61-1,.94-.61.65-1.2,1.31-1.8,1.9S13.3,49.55,12.82,50c-1,.94-1.64,1.55-1.64,1.55Z"/><path id="Path_272" data-name="Path 272" class="cls-1" d="M44.1,6.27s-.37.83-1,2c-.3.6-.65,1.31-1,2l-1.26,2.3q-.33.58-.6,1.2A8.27,8.27,0,0,1,39.61,15a5.26,5.26,0,0,1-.8.9,7.16,7.16,0,0,1-.84.71,8.67,8.67,0,0,1-.81.53,6.61,6.61,0,0,1-.7.36,4.29,4.29,0,0,1-.5.19l-.19.06-.26-.19v-.2a4.84,4.84,0,0,1,0-.53c0-.26.07-.52.12-.77a7.7,7.7,0,0,1,.26-.94,7.49,7.49,0,0,1,.41-1A5.72,5.72,0,0,1,37,13a8.67,8.67,0,0,1,.88-.94c.33-.3.65-.61,1-.94.61-.65,1.2-1.31,1.8-1.91s1.14-1.15,1.62-1.62c1-.94,1.63-1.55,1.63-1.55Z"/></g></svg>